<svg width="693" height="701" viewBox="0 0 693 701" fill="none" xmlns="http://www.w3.org/2000/svg">
<path fill-rule="evenodd" clip-rule="evenodd" d="M652.37 668.658C647.749 670.093 643.416 672.206 638.963 674.093C633.909 676.236 630.38 676.611 624.861 676.602C603.492 676.571 582.345 677.668 560.938 678.1C555.09 678.218 549.155 678.276 543.307 678.169C540.946 678.127 538.631 677.858 536.281 677.665C534.762 677.54 528.143 678.45 527.26 677.918C524.779 676.425 526.252 666.809 525.951 663.728C525.427 658.378 524.072 653.222 522.186 648.195C515.436 630.21 504.084 612.664 489.732 599.828C509.139 591.678 530.309 580.932 551.847 585.767C560.049 587.608 570.922 590.018 575.146 597.953C579.655 606.426 583.603 615.741 588.757 623.852C594.518 632.916 600.633 640.684 608.972 647.482C612.262 650.166 628.843 666.648 626.325 653.925C625.517 649.844 622.533 646.05 620.149 642.719C618.936 641.024 612.4 635.466 613.417 633.502C614.559 631.299 626.346 629.748 628.871 629.047C634.089 627.6 639.278 626.057 644.475 624.539C642.596 628.081 632.373 641.483 638.905 644.908C641.305 646.166 647.512 641.709 650.141 640.926C654.621 639.593 658.717 640.471 663.121 641.791C663.006 643.953 658.759 643.981 657.347 645.458C655.283 647.619 653.832 653.446 655.452 656.035C658.468 660.858 670.142 655.936 675.362 657.767C669.494 663.822 660.288 666.201 652.37 668.658ZM360.785 469.539C360.846 469.664 360.735 469.838 360.033 470.447C359.819 469.678 359.437 469.509 358.968 469.72C359.345 469.31 359.657 469.094 360.033 470.447C360.329 470.19 360.574 469.872 360.785 469.539ZM362.57 467C362.43 467.463 362.111 467.68 361.624 467.668C361.65 467.587 361.673 467.512 361.692 467.453C362.016 466.443 362.446 466.614 362.303 464.756C362.496 465.067 362.643 465.38 362.535 465.693C362.843 466.165 362.853 466.6 362.57 467ZM310.628 554.279C311.121 553.089 311.251 551.706 311.888 550.611C311.265 551.721 311.255 553.089 310.628 554.279ZM511.396 677.16C503.661 676.851 496.122 676.989 488.39 677.325C471.867 678.045 455.269 678.15 438.778 679.476C430.711 680.125 422.955 680.372 414.863 680.101C407.789 679.863 400.689 680.115 393.637 679.522C385.893 678.87 378.642 676.73 370.827 676.614C363.354 676.503 354.455 675.638 347.207 676.73C345.956 676.918 345.282 677.716 343.806 677.908C341.765 678.174 338.894 677.343 336.806 677.202C333.141 676.955 329.089 677.36 325.514 676.506C324.286 676.213 323.426 675.763 322.235 675.282C321.159 674.849 318.75 674.515 318.159 674.36C321.566 673.09 314.007 670.5 313.398 670.359C313.244 670.875 313.584 671.597 314.142 672.298C312.208 670.814 314.279 671.362 311.116 669.858C309.785 669.225 307.27 668.818 305.779 668.65C304.344 668.489 303.569 668.658 302.916 668.622C303.049 668.476 303.179 668.28 303.305 668.019C304.36 665.841 301.143 663.354 299.336 664.817C299.545 665.243 299.884 666.029 300.293 666.802C300.275 666.781 300.26 666.765 300.241 666.743C299.571 665.969 298.31 663.989 297.055 662.657C298.647 661.779 296.7 660.585 295.966 659.359C295.464 659.636 294.907 659.87 294.619 660.254C295.037 659.381 296.073 658.59 295.466 656.894C295.292 656.409 294.833 655.678 294.256 655.164C294.804 655.592 295.373 656.068 296.111 655.966C295.189 654.569 294.85 654.043 294.499 652.644C294.251 651.659 295.629 650.708 294.32 649.817C294.36 648.889 294.913 644.625 292.597 646.113C292.597 646.113 292.597 646.113 292.596 646.114C292.597 646.112 292.597 646.11 292.598 646.108C294.08 641.575 296.601 636.894 298.475 632.461C302.84 622.137 307.327 611.737 311.894 601.504C319.447 584.575 327.334 567.691 336.024 551.218C344.64 534.887 354.046 519.093 362.177 502.537C370.021 486.565 379.171 471.282 387.069 455.335C390.789 447.823 395.775 441.613 397.043 432.886C397.454 430.059 397.584 424.165 393.306 425.225C390.525 425.915 386.632 432.877 384.837 435.141C383.23 432.934 374.158 419.961 371.726 427.689C369.639 434.317 382.703 437.203 377.49 443.878C376.974 444.54 374.833 445.208 374.13 445.82C372.761 447.011 371.51 449.112 370.452 450.548C368.044 453.823 366.051 457.303 363.824 460.69C363.405 461.327 361.874 462.769 361.756 463.515C361.693 463.911 362.026 464.318 362.285 464.73C360.473 466.333 358.188 467.75 357.764 470.347C357.889 470.402 358.006 470.41 358.116 470.39C356.433 472.151 354.301 476.42 353.996 476.865C351.727 480.165 349.5 483.619 347.257 487.101C346.046 488.984 343.926 491.197 343.23 493.313C342.989 494.044 343.694 495.354 343.037 496.04C341.307 497.84 339.617 497.457 338.324 501.077C337.815 502.501 337.77 504.495 336.951 505.718C335.64 507.679 333.763 508.603 332.537 510.713C330.213 514.717 327.426 519.113 325.961 523.153C325.955 523.17 325.954 523.185 325.948 523.201C325.898 522.885 325.829 522.542 325.747 522.167C324.917 523.658 324.088 525.15 323.258 526.642C324.693 526.362 325.462 525.971 325.812 525.332C325.771 525.546 325.703 525.768 325.572 526C324.838 526.338 324.066 526.551 323.258 526.642C322.702 527.56 322.181 528.497 321.695 529.454C321.457 529.937 320.657 532.887 320.32 535.122C320.197 534.255 320.072 533.477 320.059 533.373C319.006 535.399 317.953 537.425 316.901 539.451C318.811 537.983 318.704 537.734 320.522 537.698C318.229 537.744 314.761 540.963 314.442 544.055C314.39 544.558 314.698 545.108 314.971 545.627C314.908 545.618 314.845 545.61 314.773 545.603C312.372 545.4 313.074 545.884 312.164 547.884C312.512 547.744 314.533 546.957 315.292 546.341C315.375 546.604 315.388 546.846 315.26 547.051C314.665 547.996 309.804 547.385 312.926 549.484C310.332 547.741 309.036 553.464 309.919 555.431C309.22 556.438 308.388 557.368 307.606 558.301C305.684 560.594 304.621 562.333 303.361 565.125C301.217 569.879 298.658 574.597 296.314 579.26C295.424 581.033 294.387 582.544 293.295 584.19C291.359 587.111 291.699 586.382 293.227 589.564C292.654 589.378 291.806 589.829 290.985 590.484C291.431 589.726 292 589.165 293.227 589.564C291.289 585.527 289.625 590.446 288.733 592.76C288.773 592.76 288.806 592.749 288.843 592.747C288.721 592.927 288.629 593.086 288.574 593.213C287.663 595.091 286.588 596.241 287.366 598.209C287.589 597.114 288.478 596.267 288.855 595.325C288.323 597.621 285.819 600.371 285.064 601.891C284.436 603.153 284.347 604.479 283.575 605.853C282.85 607.143 282.197 608.012 281.64 609.488C278.948 616.624 277.638 624.572 275.939 632.068C273.931 640.925 273.105 650.337 272.675 659.402C272.55 662.036 272.481 664.366 273.43 666.868C273.568 667.231 275.045 669.161 275.007 669.867C274.803 673.554 267.877 672.788 265.213 672.682C260.977 672.512 258.095 673.196 254.027 673.785C250.274 674.327 246.591 674.03 242.78 674.951C236.45 676.48 227.025 678.903 220.905 675.543C217.947 673.919 214.22 669.21 212.073 666.567C209.43 663.315 208.541 660.002 208.068 655.86C207.26 648.772 207.204 640.941 209.668 634.168C221.118 602.694 240.759 574.083 257.698 545.44C273.592 518.562 291.411 493.085 307.339 466.28C315.758 452.11 325.888 438.091 335.902 424.995C346.138 411.61 353.443 397.046 360.66 381.895C368.139 385.861 376.057 389.941 384.422 391.733C389.178 392.753 393.9 392.443 398.696 392.773C402.23 393.015 405.187 393.85 408.786 393.942C424.571 394.343 442.809 392.453 457.897 387.79C461.517 386.672 464.753 385.511 468.147 383.9C472.48 381.843 473.65 380.97 473.897 385.752C474.372 395.009 475.884 404.008 476.595 413.21C477.289 422.182 479.095 431.027 480.693 439.891C481.502 444.38 482.374 448.864 483.038 453.377C483.542 456.801 485.063 461.563 484.459 464.986C483.793 468.764 480.213 472.598 478.163 475.822C476.084 479.093 473.995 482.356 471.921 485.631C468.033 491.772 464.162 497.6 459.57 503.234C451.057 513.68 443.81 524.603 435.738 535.389C427.167 546.844 420.042 559.216 411.631 570.787C407.188 576.9 402.644 582.665 399.732 589.549C397.316 595.259 392.454 600.512 389.482 606.162C385.579 613.582 380.613 620.378 376.737 627.834C374.03 633.042 368.804 638.34 368.255 644.393C367.336 654.548 376.992 644.4 379.226 641.569C382.223 637.771 385.51 631.124 390.014 629.066C393.23 627.596 397.928 627.755 401.419 626.605C405.078 625.399 408.668 624.147 412.363 623.044C419.559 620.894 426.502 617.859 433.497 615.129C440.739 612.303 447.978 609.451 455.083 606.308C458.373 604.854 461.144 604.107 464.658 603.474C466.17 603.201 471.58 600.646 472.771 600.863C474.772 601.227 477.53 607.108 479.047 608.62C481.385 610.951 484.015 612.858 486.2 615.366C490.502 620.307 495.061 625.573 498.792 630.942C507.128 642.938 514.924 656.045 517.89 670.495C519.22 676.981 517.667 677.411 511.396 677.16ZM294.59 661.477C294.539 661.367 294.508 661.264 294.487 661.163C294.513 661.264 294.537 661.363 294.59 661.477C295.578 660.891 295.839 661.202 295.94 661.681C295.443 661.362 294.98 661.246 294.59 661.477ZM292.291 654.78C292.251 654.598 292.232 654.432 292.226 654.273C292.241 654.441 292.253 654.608 292.291 654.78C292.832 654.418 293.282 654.52 293.716 654.78C293.254 654.529 292.757 654.467 292.291 654.78ZM293.283 650.396C293.587 650.373 293.932 650.208 294.32 649.817C294.002 650.138 293.701 650.476 293.428 650.827C293.432 650.784 293.439 650.742 293.442 650.698C293.449 650.614 293.38 650.509 293.283 650.396ZM194.992 613.677C192.745 618.974 191.809 624.772 189.9 630.198C188.44 634.348 187.857 638.449 187.475 642.79C188.806 643.771 188.777 644.636 187.385 645.384C187.286 646.328 187.252 647.275 187.284 648.224C186.923 650.988 187.456 653.393 188.187 656.042C189.346 660.243 190.815 663.261 192.97 666.892C179.889 671.33 164.987 672.579 151.263 672.258C143.845 672.084 135.524 672.068 128.297 673.897C120.514 675.868 113.689 675.044 105.694 674.356C106.862 672.003 111.326 668.077 113.586 666.442C114.737 665.611 116.63 665.469 117.503 664.538C118.748 663.21 118.894 660.633 119.378 658.892C122.462 647.793 124.744 636.602 126.682 625.25C130.095 605.238 131.681 584.753 132.687 564.591C132.772 562.885 133.653 560.971 133.611 559.356C133.554 557.234 132.948 556.539 133.119 554.406C133.229 553.015 134.897 551.127 134.776 549.89C134.7 549.115 132.802 549.784 132.916 548.268C133.093 545.931 136.118 542.852 136.804 540.755C137.109 539.822 135.971 538.893 136.007 537.874C135.997 538.164 136.758 534.722 136.786 534.598C137.016 533.608 137.942 533.193 137.892 531.981C137.846 530.879 136.241 529.436 137.11 528.294C137.989 527.139 139.811 528.886 140.365 527.877C140.995 526.732 138.225 522.822 138.533 521.048C139.071 517.945 141.183 514.607 142.009 511.456C142.319 510.274 141.821 508.814 142.781 507.791C144.454 506.01 145.906 507.836 148.318 507.239C145.925 505.206 145.398 503.246 146.108 500.267C146.684 497.847 147.795 495.23 150.409 497.62C150.065 494.469 149.696 494.15 151.958 491.518C153.911 489.247 156.443 486.526 158.78 484.786C162.274 482.183 167.852 480.845 171.996 480.539C176.52 480.205 182.08 482.629 185.503 486.048C189.667 490.206 195.052 493.237 199.775 497.212C204.82 501.456 209.151 506.497 213.997 510.996C214.992 511.919 216.823 514.502 218.36 514.057C220.867 513.333 218.843 509.592 218.293 507.927C214.386 496.088 207.363 484.16 197.703 476.083C192.721 471.916 187.765 466.646 181.974 463.612C177.295 461.16 173.641 461.546 168.668 461.371C164.416 461.221 163.542 460.97 159.751 462.759C157.064 464.027 154.403 465.265 151.867 466.816C147.811 469.294 143.629 472.307 140.632 476.052C132.653 486.026 129.538 498.708 126.403 510.862C122.952 524.23 120.577 537.292 120.159 551.163C119.734 565.277 119.08 579.182 117.688 593.24C116.964 600.55 116.131 607.845 115.187 615.13C114.317 621.846 114.271 629.066 112.918 635.661C111.213 633.178 110.684 631.26 109.743 628.583C109.108 626.782 108.464 626.844 107.545 625.515C105.597 622.703 103.163 617.371 102.397 613.9C101.927 611.778 102.361 610.714 101.491 608.847C101.222 608.27 99.761 608.721 99.5266 607.808C99.3586 607.153 100.274 606.646 100.233 606.423C100.138 605.906 101.559 605.332 100.331 603.706C98.5866 601.398 99.4794 604.294 98.5375 604.254C97.7528 604.221 100.108 596.253 99.8309 595.097C99.7328 594.688 98.3977 594.633 98.2905 594.253C97.9663 593.104 98.0398 591.44 97.7237 590.193C96.9508 587.15 95.8037 585.929 95.7474 582.453C95.6729 577.86 93.9708 574.607 93.1516 570.224C92.9935 569.382 93.9209 568.47 93.7474 567.742C93.3959 566.259 92.2978 564.96 91.8936 563.39C91.1153 560.367 92.1543 556.102 91.9418 553.643C91.7547 551.492 91.1516 548.001 90.7547 545.329C90.1089 540.978 91.2697 542.399 93.1589 539.662C90.5394 538.816 90.8728 539.56 90.0354 536.745C89.0699 533.494 89.1589 531.577 92.108 533.377C91.3242 531.445 89.8691 529.08 89.5494 527.01C89.2524 525.088 89.9554 523.322 89.7547 521.413C89.2097 516.247 87.5976 513.443 90.5322 508.429C86.7602 506.498 88.4032 499.844 87.8119 496.132C87.1753 492.125 85.6285 488.383 88.6103 485.773C85.544 483.567 86.7584 477.239 86.7711 473.86C86.7765 472.327 87.296 469.629 87.1644 468.268C87.0726 467.311 86.4214 466.668 86.2325 465.553C85.5358 461.423 87.0744 457.333 86.1489 453.224C85.1053 448.593 84.9836 444.644 84.6258 440.106C84.2797 435.708 83.5994 431.136 83.307 426.627C83.0908 423.282 81.7857 419.662 82.3869 416.196C82.4342 415.923 83.2307 413.457 83.2534 414.014C83.2162 413.123 82.5677 412.02 82.5377 411.488C82.3243 407.476 82.248 404.205 82.4196 400.134C82.4114 400.134 82.4024 400.132 82.3942 400.133C82.891 399.831 83.1589 399.203 83.1798 398.225C86.9327 397.862 91.0381 398.779 94.8309 398.879C98.9181 398.988 102.993 398.784 107.075 398.596C109.702 398.474 115.362 397.23 117.362 399.423C118.811 401.011 117.9 409.188 117.996 411.314C118.11 413.827 119.382 417.77 117.912 419.968C117.001 421.333 114.94 421.878 113.877 423.375C113.23 424.286 112.705 425.814 112.361 426.803C111.323 429.786 110.91 433.004 111.069 436.153C111.818 450.894 123.632 457.663 136.896 451.723C148.451 446.549 151.592 430.899 141.664 422.129C139.327 420.064 136.836 419.54 133.853 419.031C131.958 418.707 126.784 418.906 125.545 417.552C124.316 416.21 124.615 412.022 124.479 410.28C124.26 407.483 123.136 403.327 123.745 400.628C122.746 398.379 123.413 397.428 125.747 397.773C126.486 397.624 127.226 397.476 127.964 397.327C129.826 396.99 131.655 396.582 133.546 396.453C136.917 396.221 140.203 396.621 143.575 396.171C146.883 395.728 150.126 394.901 153.44 394.473C156.961 394.018 160.42 394.524 163.905 393.926C171.138 392.687 178.91 391.021 185.678 388.178C187.49 387.418 190.562 385.225 192.573 385.587C194.982 386.021 194.338 387.553 195.032 389.843C198.879 402.549 206.874 415.103 215.335 425.205C223.322 434.74 233.851 442.429 243.375 450.427C249.148 455.276 254.692 460.372 260.053 465.672C263.943 469.519 268.117 475.533 273.142 477.751C274.287 477.794 278.703 477.288 279.51 478.116C280.442 479.069 280.385 479.601 280.014 480.196C281.081 477.385 276.003 477.858 273.142 477.751C273.466 478.296 276.679 484.74 277.473 481.156C277.935 481.431 278.396 481.706 278.857 481.981C276.574 487.025 273.618 492.081 270.406 496.595C268.066 499.887 265.042 502.267 262.941 505.679C260.29 509.984 258.081 514.452 254.722 518.287C248.024 525.938 244.296 536.225 238.455 544.714C235.649 548.794 234.184 552.586 231.263 556.647C228.979 559.825 225.278 563.845 223.947 567.501C223.416 568.963 223.986 570.231 223.012 571.585C222.397 572.441 220.575 573.369 219.716 574.257C216.304 577.782 213.643 582.811 210.966 586.958C208.115 591.373 206.129 595.955 203.714 600.554C201.237 605.275 197.137 608.619 194.992 613.677ZM106.186 633.824C104.411 633.851 103.746 633.86 103.548 633.082C103.49 632.848 103.472 632.544 103.48 632.147C103.472 632.544 103.49 632.848 103.548 633.082C103.746 633.86 104.411 633.85 106.186 633.823V633.824ZM106.408 627.215C106.591 627.711 105.486 628.553 102.548 628.242C105.458 628.551 106.571 627.715 106.408 627.215ZM99.1833 643.808C99.4467 644.041 99.7019 644.284 99.9508 644.534C99.7028 644.284 99.4467 644.041 99.1833 643.808ZM80.8601 678.505C78.4678 677.669 72.2435 676.19 68.1909 674.441C69.9983 674.948 71.8802 675.364 72.6041 675.617C75.3552 676.58 78.1072 677.543 80.8601 678.505C84.7584 664.452 99.3949 659.096 111.919 653.908C105.885 653.655 103.73 648.417 100.083 644.674C103.723 648.408 105.913 653.656 111.919 653.908C99.3968 659.095 84.7584 664.454 80.8601 678.505ZM67.17 664.358C67.0328 664.586 66.8966 664.821 66.7595 665.078C66.3862 665.776 64.9802 668.899 64.3898 670.949C64.2708 668.842 65.5215 666.377 67.17 664.358ZM80.9492 397.541C81.1726 397.452 81.3524 397.437 81.5159 397.45C80.8611 397.48 80.683 398.257 80.6549 399.336C80.0863 398.732 79.951 397.94 80.9492 397.541ZM126.407 430.013C130.672 432.131 134.811 433.364 138.88 435.925C133.888 439.807 117.951 446.074 118.427 434.081C118.483 432.683 119.299 428.929 120.575 428.097C122.515 426.834 124.715 429.173 126.407 430.013ZM77.5804 374.169C96.3623 380.724 118.243 379.104 137.333 375.907C157.842 372.473 178.32 370.45 198.188 364.022C198.208 366.788 199.408 369.686 197.215 371.967C195.497 373.755 191.771 374.093 189.5 374.846C183.56 376.816 178.459 379.685 172.25 380.862C165.295 382.181 158.348 382.154 151.334 382.934C148.793 383.217 146.405 383.671 144.019 384.13C140.714 384.18 138.126 384.628 134.827 385.544C123.027 385.599 111.307 385.949 99.5557 384.544C93.5875 383.829 87.6848 382.954 81.7012 382.345C76.0972 381.774 77.3488 379.358 77.5804 374.169ZM70.3952 323.755C59.3345 326.81 47.9267 325.896 37.044 322.398C29.1749 319.87 18.7354 316.165 17.0805 306.588C15.9879 300.27 19.7744 299.124 24.2276 296.502C26.3584 295.247 27.3947 294.299 28.8279 292.173C29.6781 290.91 30.4428 287.741 31.3974 286.878C33.7234 284.772 41.0649 286.621 44.7043 286.458C50.1284 286.216 53.805 284.392 58.795 282.784C67.6087 279.941 73.1863 276.494 80.0282 269.99C86.6839 263.663 94.4985 257.228 99.88 249.773C105.906 241.425 111.674 233.301 118.239 225.339C123.103 219.439 131.929 207.629 140.657 207.683C145.038 207.71 144.39 211.843 147.87 213.942C151.047 215.859 155.203 214.525 158.694 214.194C156.393 219.425 153.2 224.806 154.33 230.726C154.963 234.041 155.3 235.185 154.005 238.323C152.821 241.189 151.542 243.729 150.809 246.798C147.954 258.758 146.603 272.22 147.8 284.45C149.873 305.621 157.127 327.48 172.996 342.426C176.614 345.833 180.593 348.557 185.024 350.799C189.443 353.035 189.809 355.364 184.334 356.362C173.67 358.308 162.845 359.637 152.105 361.081C141.378 362.523 130.462 364.03 119.645 364.251C114.295 364.361 108.976 365.027 103.627 364.647C100.963 364.458 98.315 363.982 95.6438 363.908C93.3114 363.844 89.8292 365.009 87.6584 364.09C84.2607 362.651 85.95 352.707 85.7011 349.254C85.4141 345.291 82.9137 337.859 84.3987 334.113C85.4423 331.483 89.2724 330.38 91.257 328.333C94.5131 324.974 97.593 320.992 98.8364 316.413C102.96 319.741 99.4122 321.876 100.664 325.934C102.03 330.362 104.548 328.97 106.52 325.932C109.812 320.86 109.591 313.022 106.443 307.965C104.621 305.041 101.661 302.842 98.6247 301.279C96.167 300.014 90.7284 297.533 88.0072 298.632C80.6222 301.616 88.4822 310.436 92.2361 312.529C91.3342 315.135 84.9373 318.894 82.4986 320.006C78.8756 321.66 74.2844 322.681 70.3952 323.755ZM171.757 242.981C171.854 244.4 172.005 245.756 172.473 247.113C173.429 249.882 175.34 252.281 177.973 253.651C183.081 256.311 193.44 252.481 197.931 249.343C197.931 258.854 199.636 266.419 202.364 275.441C205.003 284.17 210.406 291.274 215.002 299.024C217.385 303.043 219.573 307.192 222.938 310.492C226.358 313.845 226.928 315.131 226.615 320.076C226.102 328.222 222.223 333.777 214.891 337.15C209.081 340.37 197.086 342.986 190.757 340.296C184.104 337.466 177.624 330.141 173.315 324.504C163.527 311.696 158.562 292.404 159.157 276.481C159.467 268.187 159.906 259.7 160.7 251.435C161.277 245.415 161.066 236.759 169.825 239.472C172.654 240.348 171.529 239.694 171.757 242.981ZM205.362 354.198C206.207 352.477 213.639 350.749 214.933 351.757C216.896 353.288 216.978 362.213 217.667 364.753C218.761 368.786 220.199 372.771 221.932 376.573C225.57 384.55 230.789 392.788 236.98 399.001C243.397 405.436 250.77 409.895 258.562 414.507C260.788 415.826 262.943 417.416 265.23 418.613C266.19 419.115 267.968 419.35 268.724 420.104C270.594 421.974 269.729 425.811 269.708 428.245C269.618 437.997 269.65 447.432 270.943 457.051C263.309 451.142 256.412 443.643 249.615 436.754C242.489 429.53 233.313 424.761 226.555 417.111C220.407 410.152 215.568 402.04 211.051 393.99C209.073 390.463 205.304 385.967 205.169 381.844C205.022 377.399 207.049 372.693 207.072 368.089C207.088 364.831 204.108 356.756 205.362 354.198ZM297.031 453.745C296.567 456.69 296.937 463.002 292.841 463.636C290.021 464.073 288.286 461.397 287.252 459.155C284.131 452.379 285.163 443.343 283.997 436.064C282.62 427.471 282.588 418.998 281.523 410.392C280.585 402.804 277.454 393.231 279.161 385.753C280.708 385.715 284.886 400.348 285.788 402.667C287.645 407.445 289.782 411.465 291.388 416.418C293.515 422.977 295.36 429.242 296.34 436.106C297.029 440.93 299.614 449.498 297.031 453.745ZM319.69 421.393C315.867 427.327 311.739 433.51 306.352 438.461C306.352 435.692 304.282 426.693 305.686 424.553C307.357 422.004 316.842 421.887 319.69 421.393ZM171.406 187.685C174.654 186.211 178.278 185.746 181.553 184.223C184.685 182.766 187.011 181.888 190.487 181.602C202.567 180.611 214.867 183.703 226.044 187.085C232.196 188.946 237.049 193.024 242.245 196.557C247.62 200.211 250.567 203.393 252.908 209.576C257.943 222.877 261.042 235.453 263.045 249.478C265.077 263.709 261.777 278.092 261.983 292.353C262.185 306.421 263.189 321.068 267.659 334.463C271.114 344.82 277.238 361.492 290.144 362.524C302.397 363.505 312.762 350.872 317.826 341.389C331.218 316.316 336.249 287.654 336.976 259.515C338.866 250.098 339.948 239.945 343.225 230.914C346.869 236.613 349.84 242.729 353.191 248.602C356.868 255.05 356.631 260.31 356.313 267.636C356.066 273.331 354.057 278.774 353.325 284.447C352.482 290.995 350.932 297.379 350.56 303.993C350.123 311.792 350.558 319.672 349.9 327.451C349.349 333.993 347.905 340.563 346.857 347.044C345.839 353.343 345.713 359.544 345.863 365.822C346.008 371.899 348.109 377.8 353.258 381.052C345.605 390.496 336.065 404.404 323.245 406.642C318.947 407.392 314.932 407.977 310.58 408.294C307.042 408.553 302.906 410.539 299.854 408.332C294.601 404.535 293.566 396.071 291.58 390.535C290.207 386.707 276.591 355.348 269.424 364.233C268.147 365.815 268.449 371.625 268.254 373.854C267.972 377.068 268.102 380.336 267.999 383.561C267.868 387.666 267.504 391.829 267.789 395.933C267.963 398.408 269.449 401.079 266.646 401.676C264.052 402.228 258.582 397.074 256.694 395.739C254.161 393.948 251.43 392.604 248.863 390.878C243.587 387.331 239.402 382.866 235.647 377.805C231.868 372.712 228.503 366.997 225.945 361.181C224.646 358.23 223.585 355.207 222.501 352.176C222.525 352.243 220.891 348.422 220.981 348.154C221.268 347.3 224.723 345.881 225.576 345.208C235.325 337.514 237.277 318.381 234.685 307.191C233.117 300.42 227.929 294.471 224.243 288.706C220.684 283.138 216.918 277.683 213.964 271.757C210.708 265.229 208.192 258.374 205.271 251.698C203.862 248.475 202.171 246.818 204.276 243.867C205.566 242.058 208.236 241.317 209.385 239.337C210.542 237.345 210.662 233.501 208.58 232.077C206.303 230.518 202.994 232.695 200.908 233.544C198.124 234.676 195.343 235.224 192.502 236.095C189.277 237.084 186.373 239.272 182.949 239.272C184.79 232.931 192.746 233.532 195.327 227.636C197.09 223.606 196.86 216.107 191.362 215.442C188.241 215.065 185.778 217.446 183.458 219.044C180.402 221.146 178.096 221.539 174.518 222.197C173.2 222.441 171.06 223.676 169.81 223.256C167.782 222.576 168.953 222.996 170.015 221.329C171.593 218.85 175.327 216.43 177.584 214.621C182.658 210.553 189.691 207.622 194.087 202.892C196.993 199.765 198.42 189.252 192.9 187.575C190.686 186.901 187.084 189.097 184.915 189.768C181.249 190.903 177.514 191.806 173.897 193.1C167.472 195.398 161.303 198.128 154.784 200.19C158.498 194.903 165.551 190.344 171.406 187.685ZM388.675 186.135C388.675 189.768 390.061 196.675 388.497 199.978C387.086 202.952 378.52 204.61 375.495 205.746C365.699 209.426 355.983 213.523 345.969 216.57C356.289 201.285 371.626 192.412 388.675 186.135ZM387.231 136.78C384.692 140.425 380.28 145.369 375.116 143.646C369.551 141.788 365.192 133.267 368.035 127.859C370.464 123.239 377.396 120.341 381.677 123.982C382.61 124.776 383.22 126.807 384.113 127.428C384.688 127.825 385.597 126.761 386.297 127.187C388.368 128.444 389.164 131.513 392.151 131.256C393.533 131.138 397.963 127.527 398.869 126.604C401.295 124.133 400.449 121.601 400.833 118.353C401.361 113.88 404.448 113.193 408 110.885C411.381 108.687 414.1 105.409 417.445 103.291C421.438 100.763 419.15 103.969 422.798 104.286C423.456 104.343 424.925 102.157 426.068 102.193C427.548 102.24 428.191 103.226 429.036 104.301C430.874 106.636 429.522 107.369 432.725 107.913C435.038 108.305 436.469 106.626 438.446 106.659C440.063 104.828 442.458 101.004 445.349 102.133C447.306 102.898 448.007 106.998 448.426 108.71C450.016 115.2 449.896 122.828 449.955 129.484C446.236 126.874 445.753 125.12 444.592 120.913C443.837 118.178 442.013 114.161 440.025 118.268C439.46 119.433 439.944 121.221 439.571 122.501C439.138 123.987 438.1 124.719 437.939 126.339C437.548 130.269 440.768 131.617 443.545 133.531C440.953 136.325 433.494 134.216 435.484 140.181C437.586 146.485 445.665 142.994 449.695 141.413C453.13 154.434 437.868 160.709 428.567 164.27C423.106 166.361 420.97 167.526 420.219 173.902C419.575 179.367 420.311 184.963 422.316 190.068C423.119 192.113 423.888 194.91 424.983 196.804C425.912 198.408 427.763 198.519 428.386 199.415C430.684 202.715 429.03 209.879 428.761 213.841C428.026 224.674 424.651 234.54 423.2 245.112C422.456 250.519 420.228 255.581 419.273 260.925C418.397 265.828 418.051 270.457 413.92 273.963C405.616 281.008 399.195 270.604 396.319 263.765C392.221 254.024 391.812 241.222 392.488 230.834C393.223 219.543 398.389 208.695 398.662 197.487C398.954 185.502 397.143 174.122 394.145 162.534C392.835 157.469 390.926 152.935 389.309 148.037C387.986 144.034 390.175 140.418 387.231 136.78ZM408.814 18.2047C408.814 18.2137 408.814 18.2219 408.816 18.231C408.764 18.172 408.711 18.1158 408.654 18.0469C408.714 18.1185 408.765 18.1675 408.814 18.2047ZM409.061 17.082C408.938 16.2359 408.666 15.1712 408.481 14.6924C408.931 14.969 409.441 15.2012 409.458 15.4914C409.507 16.3238 409.268 16.7156 409.061 17.082ZM421.387 19.2194C421.301 19.2684 421.218 19.3219 421.13 19.3691C420.924 19.3691 420.753 19.3255 420.599 19.2575C420.658 19.2702 420.723 19.2802 420.796 19.2856C420.997 19.3001 421.194 19.2702 421.387 19.2194ZM427.831 17.0965C426.676 17.0874 425.461 16.9795 424.112 17.5644C424.327 17.4357 424.54 17.3205 424.757 17.2434C425.361 17.0294 426.637 17.053 427.831 17.0965ZM362.48 333.843C362.728 328.421 362.724 326.793 366.985 323.297C370.537 320.383 373.973 317.324 377.561 314.453C385.508 308.094 393.998 301.362 403.032 296.613C408.094 293.953 421.906 288.593 418.416 299.093C415.121 309.003 408.765 317.805 403.293 326.608C397.715 335.583 392.134 344.564 386.34 353.4C383.818 357.243 381.159 361.013 378.747 364.924C376.373 368.774 376.129 371.371 371.262 369.777C367.725 368.618 363.729 367.206 360.392 365.698C357.462 364.374 357.637 363.566 357.556 360.122C359.371 351.22 362.059 343.056 362.48 333.843ZM385.153 225.348C383.922 230.308 375.086 230.899 370.32 231.861C369.501 232.026 365.349 233.369 364.574 232.908C363.045 231.999 363.797 229.37 363.145 228.097C359.577 221.128 359.524 230.037 358.508 232.135C355.726 237.882 351.463 226.375 349.901 223.558C348.699 221.389 347.41 220.287 348.655 218.467C349.691 216.951 355.459 215.911 357.23 215.257C363.689 212.871 370.131 210.442 376.572 208.01C379.345 206.962 387.885 201.479 387.791 206.749C386.87 212.813 386.627 219.415 385.153 225.348ZM380.324 284.58C377.607 285.424 370.226 288.811 367.478 287.214C365.157 285.866 366.76 281.14 367.021 278.681C367.513 274.045 367.442 269.001 367.178 264.351C366.79 257.482 366.219 256.94 372.996 255.093C375.615 254.378 383.61 250.51 385.556 252.691C386.464 253.71 386.08 256.948 386.28 258.182C386.713 260.853 387.458 263.464 388.433 265.986C390.12 270.345 392.581 274.259 395.157 278.135C390.538 280.977 385.489 282.974 380.324 284.58ZM364.98 236.013C366.154 234.326 371.994 234.085 373.925 233.677C377.337 232.956 380.751 232.242 384.164 231.521C384.348 235.678 386.697 246.535 383.707 249.534C382.026 251.221 376.402 251.656 374.022 252.242C371.428 252.88 368.829 253.507 366.232 254.133C365.937 250.127 365.692 246.118 365.265 242.122C365.109 240.653 364.026 237.385 364.98 236.013ZM365.654 290.895C367.45 288.828 372.309 288.888 375.01 288.257C379.312 287.25 383.391 285.876 387.463 284.174C389.742 283.222 394.231 279.962 396.751 280.788C397.457 281.019 398.934 283.926 399.47 284.472C400.389 285.406 401.575 286.039 402.639 286.777C405.572 288.809 407.352 289.441 410.811 290.129C392.721 297.547 378.187 310.745 363.224 322.92C362.163 322.03 362.752 314.071 362.869 312.245C363.086 308.856 363.231 305.424 363.485 302.024C363.693 299.23 363.747 293.09 365.654 290.895ZM420.588 363.064C420.042 366.151 419.96 370.391 418.636 373.243C417.423 375.855 417.571 375.673 414.344 375.751C410.267 375.85 405.59 376.533 401.643 375.292C405.168 367.507 408.101 359.047 412.924 351.944C414.439 349.714 417.365 344.004 420.534 344.344C423.713 344.686 423.015 347.875 422.763 350.182C422.293 354.49 421.343 358.797 420.588 363.064ZM436.469 241.626C438.918 224.832 438.711 208.413 438.711 191.5C442.618 192.017 446.922 191.692 450.689 192.797C449.473 196.675 445.966 200.173 449.437 203.854C452.962 207.594 461.18 209.234 465.945 210.611C471.526 212.224 477.215 214.195 482.95 215.154C485.528 215.584 488.335 216.002 490.935 215.502C495.053 214.711 495.416 213.619 498.122 217.86C498.136 217.883 498.16 217.917 498.174 217.942C497.392 217.493 494.913 217.763 495.573 217.782C495.67 218.124 495.815 218.464 495.9 218.78C495.169 218.18 493.554 217.674 493.33 217.634C490.637 217.161 487.222 218.369 484.628 218.967C478.815 220.31 473.044 221.774 467.412 223.763C462.672 225.437 457.977 227.311 453.456 229.51C449.966 231.208 441.905 234.198 440.803 238.357C438.692 246.332 459.759 252.391 464.897 255.091C469.748 257.64 468.216 261.421 468.272 266.486C468.331 271.987 468.829 277.436 468.448 282.925C468.153 287.178 467.827 286.519 463.584 286.443C460.407 286.386 457.229 286.258 454.055 286.446C449.576 286.713 444.978 287.333 440.774 288.962C434.486 291.398 422.409 302.995 434.444 306.529C439.399 307.984 445.789 307.452 450.868 307.101C455.273 306.796 462.175 304.791 466.425 306.306C468.641 305.678 469.441 306.483 468.824 308.722C468.926 310.257 469.028 311.791 469.13 313.325C469.335 316.413 469.54 319.5 469.746 322.587C470.166 328.905 470.586 335.224 471.005 341.543C467.312 336.309 462.232 325.984 454.363 327.163C447.609 328.175 443.615 338.649 441.441 344.054C439.672 348.445 438.531 353.048 437.336 357.618C436.187 362.014 435.768 368.228 433.667 372.211C431.599 376.134 428.723 374.817 424.488 375.22C419.193 375.725 421.328 372.761 422.169 368.261C423.451 361.406 427.988 349.58 423.614 343.191C418.028 335.036 410.137 350.147 407.992 354.228C405.985 358.043 404.275 361.997 402.739 366.022C401.747 368.62 400.945 374.231 398.386 375.652C395.251 377.395 390.281 374.609 387.402 373.698C384.021 372.628 380.325 372.181 376.853 371.481C386.739 356.004 397.021 340.76 406.613 325.101C411.408 317.272 417.457 309.053 420.09 300.196C420.59 298.519 421.203 296.916 420.999 295.131C420.823 293.609 418.534 291.215 418.679 290.158C418.894 288.592 422.039 287.284 423.509 285.638C428.617 279.919 429.901 273.112 431.487 265.841C433.213 257.928 435.305 249.62 436.469 241.626ZM455.771 193.629C463.302 192.006 471.857 196.333 478.154 199.825C482.309 202.13 493.396 206.947 493.823 212.59C493.707 211.059 483.511 212.014 481.496 212.064C472.882 210.199 463.694 207.684 455.657 203.967C452.73 202.613 449.292 201.287 450.358 197.812C451.057 195.529 453.637 194.089 455.771 193.629ZM447.037 304.652C442.276 304.378 424.994 304.565 433.692 295.937C439.137 290.533 449.164 289.36 456.406 289.331C459.001 289.321 461.559 289.524 464.136 289.789C464.843 289.873 465.551 289.957 466.257 290.041C468.417 289.611 469.091 290.506 468.28 292.722C468.667 294.019 469.287 301.71 468.148 302.792C466.637 304.226 461.825 303.593 460.051 303.732C455.698 304.072 451.405 304.678 447.037 304.652ZM472.312 370.023C459.789 371.889 447.287 374.268 434.589 374.467C436.484 365.211 438.692 355.975 442.143 347.158C444.349 341.523 448.354 329.358 456.072 329.957C462.233 330.434 469.422 340.991 471.14 346.383C473.379 353.413 472.312 362.712 472.312 370.023ZM504.474 229.326C504.224 230.609 498.604 232.916 497.401 233.614C488.732 238.651 481.009 246.119 475.82 254.607C475.243 251.331 475.335 245.119 472.59 242.792C467.758 238.696 468.75 247.872 468.173 250.675C467.631 253.304 468.304 252.879 466.037 253.113C464.026 253.32 458.895 249.554 457.039 248.605C451.91 245.982 446.995 243.127 442.068 240.149C446.149 233.405 458.186 230.31 465.041 227.613C474.892 223.736 484.602 221.753 495.026 220.148C496.77 221.055 496.996 219.014 498.299 218.557C498.371 218.452 498.396 218.363 498.399 218.281C499.93 220.556 504.846 227.416 504.474 229.326ZM517.227 320.197C522.079 342.489 523.287 365.68 529.415 387.702C535.241 408.637 540.415 429.479 547.146 450.129C551.023 462.025 554.622 474.039 559.805 485.462C563.419 493.428 566.287 510.419 575.092 514.148C580.856 516.588 583.411 514.427 582.796 508.583C582.262 503.497 579.625 500.302 577.448 495.909C576.689 494.38 574.221 490.062 574.49 488.439C574.824 486.421 575.337 486.638 577.441 485.64C581.909 483.521 586.364 482.085 591.122 480.859C589.202 483.836 585.369 488.093 585.061 491.733C584.806 494.738 586.964 500.248 589.948 501.4C592.769 502.49 596.088 500.193 598.503 498.791C601.299 497.169 603.963 496.717 607.041 495.566C603.119 501.217 596.694 505.719 599.445 513.492C602.379 521.785 611.485 515.003 617.308 514.066C615.645 520.491 608.266 527.816 602.959 531.392C599.396 533.792 595.529 535.956 591.706 537.899C590.225 538.65 588.281 539.11 586.921 540.006C586.404 540.347 585.534 541.793 585.064 542.019C578.46 545.209 569.452 546.023 562.265 547.556C554.348 549.244 547.533 549.658 539.383 549.266C532.64 548.942 525.169 544.8 519.535 541.321C515.25 538.677 514.625 535.445 513.291 530.776C511.081 523.039 509.101 515.252 506.992 507.488C505.172 500.795 504.326 494.364 503.093 487.573C500.482 473.18 499.28 458.56 496.478 444.192C493.696 429.921 492.766 415.464 491.996 400.876C491.626 393.85 490.481 386.683 490.133 379.794C489.85 374.19 489.946 368.55 489.976 362.787C489.999 358.736 488.563 354.688 488.661 350.623C488.747 347.028 489.077 343.791 488.697 340.16C487.888 332.423 487.255 324.778 486.647 317.03C485.46 301.927 481.969 287.024 480.577 271.986C479.975 265.482 487.113 259.245 491.949 255.457C497.103 251.421 501.239 245.752 506.911 242.575C509.012 268.658 511.656 294.606 517.227 320.197ZM431.809 599.062C426.217 601.555 420.626 604.053 415.031 606.541C410.919 608.371 405.523 612.132 401.003 611.793C404.216 607.44 406.24 602.461 409.667 598.234C413.089 594.012 415.912 589.528 419.006 585.067C423.072 590.027 427.228 594.571 431.809 599.062ZM432.999 577.174C441.459 572.712 453.48 564.232 463.396 565.832C470.539 566.983 478.629 572.213 482.942 577.972C484.965 580.672 486.988 583.193 489.303 585.84C491.425 588.266 492.514 587.951 490.658 590.481C489.232 592.427 485.868 593.745 483.679 594.497C483.679 590.239 485.004 585.97 479.887 586.391C477.869 586.557 475.515 587.039 473.503 587.368C471.769 587.651 470.765 588.403 469.287 588.752C467.71 589.122 465.827 588.686 464.193 588.814C461.378 589.035 459.126 590.163 456.46 590.753C450.945 591.975 446.289 593.664 440.919 595.469C438.462 591.712 436.398 587.198 433.06 584.128C429.329 580.695 427.738 579.948 432.999 577.174ZM360.421 14.7505C361.233 14.6652 362.161 14.1601 362.788 13.1072C361.69 14.95 361.043 15.0334 360.421 14.7505ZM335.06 17.685C336.044 17.8637 337.016 18.0822 337.83 18.464C338.631 18.8395 339.063 19.2675 339.491 19.6429C339.291 19.5559 339.075 19.4625 338.831 19.3609C337.774 18.9193 336.422 18.1221 335.06 17.685ZM318.148 157.424C318.081 157.335 318.019 157.252 317.955 157.17C318.019 157.252 318.081 157.335 318.149 157.424H318.148ZM314.86 157.902C314.551 157.789 314.289 157.602 314.081 157.33C314.289 157.602 314.551 157.789 314.86 157.902C315.065 157.977 315.292 158.019 315.536 158.031C315.292 158.019 315.065 157.977 314.86 157.902ZM313.545 155.211C313.544 155.602 313.574 155.945 313.634 156.247C313.574 155.945 313.544 155.602 313.545 155.211ZM317.526 156.667C317.447 156.583 317.368 156.505 317.289 156.432C317.368 156.505 317.447 156.584 317.526 156.667ZM316.849 156.077C316.723 155.992 316.596 155.914 316.466 155.85C316.596 155.914 316.723 155.992 316.849 156.077ZM457.488 21.356C457.67 21.4086 457.828 21.4313 457.974 21.4394C457.775 21.4594 457.615 21.4294 457.488 21.356ZM461.839 24.2715C461.31 23.7809 460.997 23.3003 460.836 22.8188C460.917 22.8695 461.007 22.9158 461.108 22.9557C461.266 22.7997 461.423 22.6437 461.581 22.4868C461.363 22.8931 461.287 23.2849 461.455 23.6367C462.267 25.3344 463.258 22.7535 464.482 24.0303C463.566 23.9179 462.447 24.2715 461.839 24.2715C460.426 26.2104 459.013 28.1502 457.601 30.089C459.513 31.0439 460.113 29.865 461.181 31.6053C461.233 31.6896 461.279 31.8964 461.32 32.1693C460.876 30.9007 459.717 31.1446 457.601 30.089C459.013 28.1502 460.426 26.2104 461.839 24.2715ZM465.501 28.5401C465.631 28.4422 465.71 28.307 465.761 28.1284C465.795 28.0087 465.816 27.8699 465.829 27.7094C465.816 27.8699 465.795 28.0087 465.761 28.1284C465.71 28.307 465.631 28.4422 465.501 28.5401C465.413 28.6054 465.303 28.6544 465.163 28.6879C465.303 28.6544 465.413 28.6054 465.501 28.5401ZM465.901 26.4788C465.883 26.7318 465.872 26.9595 465.863 27.1635C465.872 26.9595 465.883 26.7318 465.901 26.4788ZM463.81 31.6434C463.872 31.7558 463.939 31.8574 464.011 31.9517C463.94 31.8547 463.871 31.7558 463.81 31.6434ZM461.686 39.2737C459.666 38.1918 461.42 36.8297 461.503 35.1674C461.511 35.0196 461.513 34.8945 461.518 34.7584C461.531 35.1602 461.534 35.4894 461.524 35.6508C461.388 37.9995 459.72 38.6534 462.755 39.3653C462.962 39.4142 463.231 39.4396 463.536 39.4514C462.76 39.5076 462.085 39.4877 461.686 39.2737ZM493.01 56.7288C492.884 55.7685 497.376 53.6727 497.954 53.4152C497.244 53.7317 492.89 55.8183 493.01 56.7288ZM498.119 48.2243C498.089 48.2116 498.055 48.208 498.025 48.1944C498.032 48.1237 498.024 48.0575 498.024 47.9886C498.045 48.0756 498.073 48.1563 498.119 48.2243ZM500.51 55.9807C500.535 55.8764 500.583 55.598 500.636 55.2661C500.715 55.676 500.803 56.0605 500.885 56.396C500.786 56.2654 500.669 56.1285 500.51 55.9807ZM497.021 55.9217C497.017 54.2939 497.528 54.6412 497.845 54.6902C497.556 55.1264 497.019 55.208 497.021 55.9217ZM492.281 59.4966C492.753 59.4041 493.15 59.6752 493.517 59.9881C492.718 59.7768 492.063 59.5383 492.281 59.4966ZM488.427 68.7946C488.352 68.8199 488.286 68.8363 488.217 68.8562C488.286 68.8363 488.352 68.8199 488.427 68.7946ZM488.816 68.6549C488.763 68.6758 488.717 68.6903 488.667 68.7084C488.717 68.6903 488.763 68.6758 488.816 68.6549ZM488.087 68.8934C487.989 68.9179 487.897 68.9351 487.81 68.9469C487.897 68.9351 487.989 68.9179 488.087 68.8934ZM491.05 125.162C491.249 124.826 491.677 124.716 492.162 124.662C491.552 124.895 491.083 125.395 490.972 126.119C490.851 125.851 490.82 125.547 491.05 125.162ZM494.583 114.754C494.549 114.744 494.515 114.73 494.482 114.728C493.493 114.651 493.063 115.291 492.956 116.269C493.023 115.416 493.309 114.72 494.047 114.493C494.009 114.416 493.975 114.344 493.939 114.269C494.128 114.44 494.345 114.602 494.583 114.754ZM493.41 120.024C493.39 119.908 493.365 119.781 493.339 119.649C493.449 120.114 493.576 120.578 493.705 121.023C493.577 120.665 493.466 120.323 493.41 120.024ZM494.271 103.82C494.191 103.857 494.1 103.89 494.004 103.918C494.1 103.89 494.191 103.858 494.271 103.82ZM494.513 103.677C494.458 103.719 494.392 103.755 494.326 103.789C494.392 103.755 494.456 103.718 494.513 103.677ZM493.958 103.933C493.845 103.964 493.719 103.99 493.581 104.007C493.718 103.99 493.844 103.965 493.958 103.933ZM494.974 92.1044C494.987 92.5415 494.989 92.9777 495.002 93.3903C494.932 92.985 494.924 92.585 494.974 92.1044ZM691.014 675.515C688.313 673.087 679.263 672.925 675.67 672.243C683.445 664.805 689.289 646.001 674.437 643.587C671.149 643.053 670.219 644.32 669.466 640.597C669.005 638.315 669.945 636.213 668.813 633.94C666.125 628.543 655.913 629.146 650.81 628.369C652.029 624.084 655.019 616.43 650.515 612.951C646.962 610.207 639.566 613.87 635.791 615.045C625.589 618.22 615.227 621.844 606.622 628.239C602.765 623.033 598.733 617.897 595.498 612.268C592.412 606.898 590.501 600.961 587.6 595.494C584.692 590.011 581.605 583.547 577.543 578.835C574.104 574.845 569.388 574.45 564.85 572.546C553.34 567.716 543.365 567.993 531.337 569.778C519.316 571.564 508.893 578.595 498.711 584.73C494.715 571.253 485.47 556.61 471.14 552.454C464.709 550.587 457.942 552.388 452.063 555.321C444.777 558.956 439.048 565.136 431.923 568.577C440.048 554.669 450.304 541.587 459.232 528.453C464.128 521.249 470.315 514.818 475.099 507.478C479.975 499.995 483.567 491.676 487.103 483.508C490.092 491.131 490.598 499.151 493.341 506.8C495.861 513.822 497.586 521.026 500.45 527.931C503.441 535.141 506.083 542.253 510.126 548.962C512.432 552.79 518.115 564.711 522.305 557.064C531.627 563.361 540.625 567.163 552.285 566.887C557.623 566.761 563.569 566.593 568.678 565.397C573.867 564.184 578.826 562.55 583.983 561.386C588.063 560.466 591.792 557.975 595.503 556.13C599.772 554.008 604.001 550.193 607.297 546.847C611.378 542.704 615.595 538.716 619.697 534.599C623.757 530.525 623.464 526.367 625.635 521.304C627.902 516.022 628.874 511.353 625.876 506.022C623.68 502.117 619.793 502.655 618.884 498.7C618.021 494.948 618.861 491.411 616.504 487.969C614.714 485.357 608.279 483.611 608.258 480.944C608.24 478.74 610.529 476.79 610.438 474.146C610.357 471.785 609.201 467.989 607.932 465.991C605.548 462.235 601.917 462.107 597.822 463.255C587.927 466.029 578.227 473.16 571.422 480.65C562.093 455.096 554.746 428.983 547.921 402.848C544.907 391.304 542.545 379.607 540.629 367.835C538.731 356.18 535.857 344.439 534.574 332.723C533.804 325.697 531.643 319.122 530.632 312.181C529.795 306.434 529.237 300.643 528.414 294.894C526.593 282.154 524.063 269.61 522.095 256.901C521.008 249.877 518.553 243.733 516.664 236.969C515.043 231.169 514.079 226.209 511.37 220.73C506.204 210.28 500.892 197.478 490.855 190.837C481.93 184.931 473.273 179.995 462.394 178.785C456.013 178.075 450.871 179.575 444.632 180.264C439.107 180.874 434.376 183.927 428.987 185.027C428.987 179.906 428.486 179.767 433.16 177.946C435.852 176.896 438.479 175.744 441.221 174.831C444.111 173.87 446.299 172.932 448.763 171.165C451.671 169.078 449.838 169.741 453.323 170.462C458.817 171.599 457.197 170.28 460.811 167.543C462.914 165.95 465.06 166.922 467.521 167.24C469.817 167.537 473.595 168.551 475.347 166.485C476.679 164.913 475.227 162.216 476.209 160.508C477.758 157.811 482.202 157.934 484.573 156.122C487.169 154.141 487.403 151.907 486.841 148.86C486.451 146.751 483.126 142.065 483.313 140.25C483.439 139.041 484.075 138.688 484.897 138.589C491.395 138.917 491.082 137.938 489.497 132.18C489.403 133.033 489.347 133.758 489.282 134.383C489.265 133.489 489.272 132.654 489.497 132.18C489.666 131.823 490.273 131.593 490.824 131.305C490.678 131.449 490.527 131.596 490.348 131.761C490.626 132.985 490.707 136.183 491.882 137.053C492.723 137.676 495.672 137.612 496.267 136.571C497.511 134.397 493.231 133.163 493.064 131.549C497.979 131.138 496.302 128.742 493.733 126.297C493.631 125.626 494.021 125.309 494.904 125.345C494.465 124.886 493.922 124.626 493.38 124.542C493.763 124.478 494.095 124.366 494.271 124.094C494.424 123.854 494.435 123.524 494.378 123.153C494.473 123.439 494.557 123.684 494.617 123.872C498.857 125.584 496.678 116.502 494.92 114.954C495.055 112.435 495.191 109.916 495.323 107.397C494.114 108.195 493.193 109.439 492.878 110.738C492.922 109.539 493.621 108.52 495.323 107.397C492.598 106.197 492.33 106.051 495.257 105.795C497.683 108.007 497.344 106.171 498.847 104.819C498.756 104.9 501.121 102.33 500.963 102.723C502.086 99.9442 500.846 94.0804 496.32 95.9903C498.778 98.1903 496.311 98.5957 495.453 100.487C495.424 100.551 495.401 100.618 495.378 100.684C495.423 100.457 495.485 100.239 495.578 100.038C497.094 96.7792 497.453 99.2813 495.785 95.574C495.783 95.5713 495.782 95.5686 495.78 95.565C496.221 95.788 496.912 95.7409 498.007 95.2793C499.373 93.6116 499.786 94.2935 500.518 92.1452C501.16 90.2653 500.863 88.983 499.582 88.2838C499.728 88.3219 499.874 88.3645 500.022 88.4017C500.587 86.9562 499.802 85.5787 498.492 84.9139C497.963 85.7791 497.435 86.6451 496.908 87.5112C497.147 87.5883 497.387 87.6572 497.627 87.7297C497.625 87.7297 497.622 87.7297 497.619 87.7288C495.942 87.5347 495.262 87.8358 495.011 88.6103C494.926 88.2629 494.904 87.9211 495.096 87.6109C495.3 87.2799 496.75 87.7705 496.908 87.5112C499.508 83.2508 496.762 79.704 492.578 77.5339C490.99 76.7096 487.857 76.6815 487.297 74.7526C486.9 73.3896 488.875 70.0914 489.253 68.4744C492.172 67.1359 486.784 66.3524 486.747 66.347C486.586 68.2541 486.69 69.0984 487.792 68.9505C486.682 69.1011 486.586 68.2477 486.747 66.347C488.331 66.59 493.005 66.1538 495.297 64.5958C499.09 64.7037 501.042 65.3612 503.342 62.072C501.094 61.1389 498.447 61.6413 496.429 60.2084C496.522 60.6392 496.598 61.0301 496.647 61.391C496.471 60.8578 496.092 60.3989 495.582 59.9636C495.912 60.2465 495.741 60.3372 495.35 60.3245C495.425 60.2239 495.502 60.1078 495.582 59.9636C495.718 58.3675 496.892 59.0177 498.08 59.1175C498.049 58.6042 497.845 58.1726 497.626 57.7445C497.844 58.1553 498.047 58.5761 498.08 59.1175C498.833 58.6387 499.586 58.1599 500.339 57.6801C500.748 57.5613 500.993 57.3954 501.09 57.1868C501.091 57.1904 501.092 57.195 501.092 57.1986C504.691 58.2723 503.596 50.6493 501.94 50.6883C501.496 50.6991 501.174 50.8624 500.937 51.1208C500.988 50.418 501.109 49.6744 501.397 48.6333H501.394H501.397C501.566 48.1853 501.733 47.7374 501.903 47.2894C500.994 47.3474 498.06 45.5945 498.006 47.6857C497.951 47.3084 497.802 46.9565 497.545 46.6364C497.807 44.323 496.446 44.5198 494.336 43.8732C493.552 43.6329 492.687 42.1321 491.805 42.7623C490.478 43.7091 491.277 44.6005 492.129 45.2752C492.004 46.0615 491.627 46.6899 491 47.1597C490.905 47.0699 490.813 47.001 490.722 46.9312C491.309 46.5875 491.804 46.0406 492.129 45.2752C489.416 43.1287 488.271 44.5334 486.183 46.2601C487.014 46.952 487.978 47.3247 488.901 47.3628C488.854 47.4644 488.807 47.5669 488.766 47.6884C487.719 47.5578 486.858 47.0817 486.183 46.2601C488.4 44.4255 488.201 43.301 485.505 42.2128C484.593 41.8455 484.016 42.6635 482.889 42.2309C482.33 42.016 481.926 41.0402 481.38 40.7174C477.3 38.3024 472.399 39.6772 468.054 39.105C468.598 39.0352 469.085 38.9671 469.454 38.9182C469.024 37.42 467.857 36.7716 466.63 36.3155C466.632 35.4621 466.633 34.6079 466.632 33.7545C466.459 33.7155 466.292 33.6974 466.13 33.6929C466.414 33.468 466.583 33.1624 466.543 32.6418C465.494 33.0209 464.606 32.7416 464.032 31.9825C465.173 33.4399 467.395 32.6772 468.074 30.8082C468.785 28.8493 467.261 27.5335 465.935 26.0798C465.967 24.6832 465.372 24.1809 464.606 24.0466C465.989 21.3297 466.3 22.6773 464.815 19.2793C464.692 16.9895 462.749 17.8211 461.439 19.292C461.577 18.9546 461.719 18.6082 461.853 18.2473C460.822 18.1775 459.792 18.1076 458.761 18.036C459.024 18.8721 459.601 20.3612 458.842 21.0712C459.347 20.3448 458.987 18.7578 458.761 18.036C457.499 17.3323 456.237 16.6286 454.975 15.923C455.081 16.1488 455.372 16.9985 455.731 17.9607C454.76 16.6086 453.968 15.7707 452.645 14.3786C451.999 13.6994 449.471 10.4393 448.77 10.2361C444.483 8.99373 441.242 17.3758 436.013 16.2286C432.93 15.5521 434.369 14.7541 431.456 15.32C429.861 13.2478 419.45 16.5061 419.051 18.4776C419.246 18.425 419.395 18.4033 419.516 18.3996C418.342 18.8204 417.321 19.4679 416.185 19.9059C413.335 21.005 415.031 21.2916 411.795 19.4416C410.692 18.8104 410.284 19.0081 409.854 18.9501C411.248 18.3244 411.919 13.9932 411.939 12.4488C411.989 8.75885 411.501 9.40635 412.941 6.76014C411.609 6.73928 410.672 6.62592 409.972 6.94242C410.172 6.31487 410.316 5.69912 410.312 5.10331C411.032 3.15176 410.398 0.852876 408.169 0.309669C404.797 -0.512849 404.136 4.32704 406.579 5.11964C404.242 4.3615 405.18 1.29996 401.998 0.885523C403.165 0.825671 403.89 1.04604 404.977 2.38274C405.338 1.65726 405.696 0.93268 406.057 0.207195C403.524 -0.0576073 402.353 -0.272532 400.308 0.917263C398.306 1.27456 396.894 2.72463 395.384 4.14023C391.269 7.99528 387.574 11.7578 383.786 15.9402C381.839 11.9419 379.69 9.03091 376.532 13.5053C373.68 17.5436 371.372 23.1253 369.89 27.821C366.928 26.4616 368.177 26.0181 366.935 23.8163C368.226 25.961 366.913 26.4543 369.89 27.821C370.185 26.8842 370.482 25.9465 370.778 25.0097C368.184 22.0543 368.294 19.1179 365.486 15.9665C365.175 16.9768 366.07 18.416 366.226 19.3264C366.401 20.3358 365.282 21.0368 365.536 22.1223C366.585 21.7387 366.828 21.9699 366.862 22.3898C366.826 21.9708 366.579 21.7414 365.536 22.1223C365.12 20.3494 366.154 19.4072 365.577 17.4275C365.343 16.6276 365.005 16.0427 364.596 15.4768C366.382 12.4888 360.604 10.4184 359.259 12.1967C359.09 12.4207 358.976 12.6293 358.886 12.8306C356.63 11.8159 355.933 13.9751 354.88 15.5965C354.631 16.1035 354.38 16.6113 354.129 17.1192C352.801 18.2101 351.569 20.4927 350.569 21.9863C348.43 25.1793 347.533 29.8523 344.915 32.513C345.003 30.7991 345.938 26.9994 342.86 28.5319C343.876 28.0259 344.022 27.4111 343.799 26.6983C343.99 26.8062 344.197 26.9041 344.438 26.9839C344.87 27.0266 345.305 27.0683 345.738 27.11C345.683 24.6832 344.092 23.0881 342.213 21.7976C342.213 22.4315 342.193 23.0836 342.234 23.7084C342.224 23.6857 342.213 23.6639 342.203 23.6413C341.378 21.6652 341.728 21.083 341.013 20.4772C341.294 20.5444 341.615 20.5924 342.01 20.6115C339.711 16.7238 336.654 16.1026 332.428 17.1981C332.716 17.2661 333.018 17.3241 333.325 17.3812C332.847 17.3821 332.383 17.4674 331.95 17.6787C330.308 18.4776 327.881 23.07 326.742 24.6624C322.734 30.2668 320.867 37.1335 318.769 43.6112C318.179 45.4339 317.285 49.7061 315.006 50.3174C312.358 51.0283 309.552 46.7135 307.22 45.2716C299.761 40.6566 296.051 48.9426 294.902 55.5164C293.188 58.4247 293.583 60.6664 296.055 62.0439C295.363 61.0437 295.044 59.9781 294.914 58.879C295.241 60.7471 296.8 61.3946 297.081 62.1945C297.235 62.6334 297.449 65.2959 297.445 65.8309C298.719 66.7822 298.815 67.4851 297.732 67.9394C297.07 68.3919 296.449 68.8979 295.871 69.4566C294.083 71.341 294.101 73.9537 292.465 75.7864C290.617 77.8595 288.919 76.9436 288.046 80.3515C286.551 86.1899 290.234 95.0054 296.863 95.564C296.076 97.8629 295.058 100.194 294.47 102.552C293.69 105.689 293.745 106.007 295.223 109.007C284.199 107.369 285.061 119.039 291.344 124.771C292.833 126.13 294.463 126.976 296.385 127.578C297.775 128.014 301.972 127.771 302.972 129.09C305.078 131.87 300.376 135.485 299.96 138.587C299.917 138.905 299.9 139.45 299.914 140.083C298.178 142.207 298.263 142.383 300.744 144.37C302.102 146.12 306.301 145.701 307.578 147.375C309.542 149.952 305.162 154.099 307.358 157.109C309.103 159.501 310.924 158.01 313.719 159.024C315.072 159.642 316.425 160.261 317.775 160.883C318.408 160.443 319.1 160.167 319.853 160.055C321.432 160.85 319.925 162.249 321.915 162.717C322.949 163.043 325.337 164.282 326.382 163.64C324.901 164.55 323.906 166.803 323.056 169.279C322.247 170.603 321.499 172.06 321.797 173.154C321.298 174.67 320.788 176.053 320.179 177.016C323.619 177.54 323.214 180.78 325.595 182.56C328.812 185.314 329.348 182.757 328.588 181.414C328.91 181.578 329.24 181.79 329.582 182.032C329.646 182.077 328.955 183.713 329.634 184.095C330.584 184.631 330.583 184.093 331.571 184.082C332.501 184.071 333.85 182.676 334.986 182.559C335.591 182.497 337.378 183.324 337.749 183.078C338.779 182.396 338.699 181.646 338.298 180.741L338.759 181.661C339.868 184.557 340.425 183.905 342.107 183.075C341.652 183.299 343.424 181.977 343.789 182.083C342.96 179.787 339.677 180.029 337.654 179.455C338.936 179.818 341.017 179.832 342.196 180.34C344.169 181.189 343.545 182.054 345.882 182.318C346.866 182.43 350.879 181.34 351.586 180.625C351.653 180.557 351.701 180.475 351.737 180.383C352.101 179.802 352.465 179.22 352.828 178.638C354.311 178.81 352.705 181.09 355.033 180.183C356.771 179.504 355.925 178.56 355.372 177.529C355.191 177.192 354.987 176.952 354.772 176.778C357.175 177.353 360.031 180.587 363.311 179.681C365.161 179.171 365.264 177.908 366.62 176.728C368.432 175.151 368.993 175.394 371.187 174.631C372.516 174.169 373.931 173.148 375.269 172.911C377.447 172.524 376.846 172.764 378.65 173.682C379.729 174.23 380.343 175.26 381.706 175.459C382.95 175.64 384.904 174.209 385.911 174.603C388.651 175.674 387.954 179.52 388.109 182.055C374.238 177.641 358.025 184.697 347.816 194.387C345.048 197.014 343.236 200.129 340.777 202.986C338.108 206.085 335.591 207.494 335.216 211.91C334.892 215.718 336.61 218.004 335.254 221.662C333.953 225.169 332.535 228.307 331.584 231.963C327.04 249.42 326.9 267.549 323.533 285.248C320.417 301.625 315.969 316.215 308.638 331.227C305.24 338.186 302.39 342.447 294.936 345.382C288.906 347.755 284.492 344.644 281.545 339.23C273.614 324.66 272.486 309.676 272.582 293.424C272.628 285.617 273.519 277.809 274.271 270.047C275.051 262.002 274.466 254.486 273.907 246.453C272.784 230.347 269.109 216.534 263.58 201.387C260.958 194.203 258.747 187.199 252.433 182.525C248.896 179.908 245.344 176.634 241.197 174.371C237.88 172.56 235.906 170.924 232.123 170.113C229.635 169.58 227.368 168.756 224.966 167.983C219.298 166.16 212.741 165.596 206.794 165.616C192.911 165.663 177.674 170.337 165.176 176.33C158.954 179.315 152.196 183.759 148.097 189.42C146.406 191.757 145.255 194.348 144.106 196.977C142.731 200.119 143.163 200.694 140.251 200.584C138.427 200.515 136.387 198.828 134.298 198.738C132.011 198.64 130.337 199.436 128.208 200.027C125.506 200.776 122.966 201.447 120.564 202.999C114.734 206.764 109.803 212.763 105.348 217.998C97.1915 227.579 89.8128 238.316 82.1826 248.075C74.6686 257.683 65.5406 266.21 53.8695 270.566C49.4172 272.228 44.4872 272.563 39.9414 273.907C37.9468 274.497 35.5309 276.062 33.441 276.035C30.1567 275.993 30.4092 274.384 29.2721 271.778C27.9206 268.682 25.9651 266.272 23.5219 263.959C12.6818 253.696 -0.799416 268.902 0.0370882 280.616C0.526639 287.46 5.65647 291.975 5.47573 298.692C5.30589 304.976 5.68009 311.351 7.92167 317.315C10.4375 324.004 16.6246 330.941 22.0805 335.492C27.1349 339.708 33.4655 340.603 39.8324 341.307C42.7506 341.629 45.7787 342.497 48.6007 342.446C51.0185 342.401 53.2173 341.423 55.686 341.523C59.873 341.691 62.1174 341.664 66.041 340.178C68.9511 339.076 71.5768 338.464 74.7458 338.535C74.7458 345.213 75.169 351.745 75.743 358.4C75.8184 359.279 76.426 361.561 76.0219 362.345C75.5232 363.312 74.931 362.674 74.3098 363.37C72.8275 365.028 71.753 365.843 70.6432 367.999C67.5987 373.911 66.6668 380.524 67.853 387.116C68.784 392.284 71.823 394.413 71.1046 399.904C70.2599 406.355 68.6886 412.939 68.3852 419.432C68.2399 422.53 68.2036 424.869 67.5478 427.873C67.1691 429.617 65.8948 432.759 65.9974 434.522C66.0619 435.611 67.2163 436.093 67.2181 437.091C67.2208 437.96 66.2154 437.845 66.1464 438.591C65.9357 440.84 65.8131 442.876 65.8612 445.138C65.9248 448.197 65.626 451.237 65.7404 454.296C65.8276 456.625 65.2854 462.141 67.9002 461.232C67.2027 462.878 67.0174 464.464 66.9484 466.044C66.9129 465.891 66.8975 465.734 66.9111 465.574C67.071 463.75 67.1246 463.062 67.9002 461.232L66.408 461.751C65.4952 464.106 66.616 466.413 66.8666 468.756C66.8585 468.991 66.8503 469.225 66.8357 469.462C66.625 472.866 66.8821 476.199 67.1364 479.595C67.7168 487.35 67.9901 495.994 70.0873 502.962C72.3861 510.6 71.6513 520.201 72.5378 528.613C73.5523 538.241 75.1972 547.715 76.4224 557.306C77.5169 565.872 78.0445 575.165 79.9219 583.506C81.4614 590.338 82.7638 596.99 83.5895 604.171C84.732 614.128 88.366 621.713 92.365 630.76C94.0562 634.589 94.1725 634.528 91.068 637.325C89.7674 638.496 88.6648 639.867 87.3396 641.011C84.6866 643.304 81.7884 644.64 78.3043 645.053C69.7276 646.069 61.0629 649.118 56.2446 656.512C51.5879 663.66 54.6052 672.035 58.0901 679.318C53.4907 679.708 41.0522 679.427 43.9622 687.806C45.9513 693.534 56.5579 691.615 61.2427 691.678C68.0882 691.77 74.9819 691.434 81.7675 691.341C84.8565 691.298 85.1716 690.978 88.1798 692.156C91.0145 693.265 93.1779 693.387 96.2451 693.185C99.5112 692.971 102.775 693.452 105.941 692.982C109.931 692.391 112.413 691.892 116.421 692.601C119.318 693.114 121.641 692.861 124.532 692.481C127.736 692.056 130.771 692.312 134.077 692.223C141.799 692.016 149.462 692.161 157.189 692.247C164.7 692.331 172.217 691.305 179.677 691.642C192.686 692.228 205.926 691.694 218.995 691.998C225.023 692.139 229.68 695.646 235.722 695.285C241.863 694.919 248.088 694.863 254.182 694.005C264.674 692.527 274.784 690.436 285.443 689.891C292.181 689.547 298.102 692.447 304.441 694.269C306.738 694.928 308.804 694.619 310.952 695.109C312.978 695.57 315.056 696.893 317.196 697.442C322.262 698.741 327.104 699.235 331.556 699.354C332.133 700.421 332.798 700.552 333.552 699.745C333.858 699.572 334.164 699.398 334.47 699.225C335.89 699.036 336.902 698.396 338.393 698.302C340.689 698.155 343.039 698.468 345.17 698.263C349.632 697.833 353.821 697.551 358.756 698.058C361.682 698.359 364.244 697.933 367.125 697.987C367.092 697.986 371.077 698.764 371.167 698.729C371.521 698.592 372.078 697.608 372.308 697.564C372.225 696.622 372.509 696.197 373.16 696.288C373.682 696.175 374.026 696.448 374.193 697.106C374.036 697.125 375.434 697.832 375.533 697.847C375.614 697.86 379.214 697.434 379.468 697.339C380.5 696.951 380.94 695.828 381.764 695.659C382.739 695.46 383.321 696.536 384.167 696.491C386.032 696.39 385.812 695.559 387.244 695.301C392.275 694.394 398.435 695.573 403.631 695.581C408.81 695.59 413.959 695.116 418.945 694.897C425.076 694.627 431.08 695.791 437.257 694.964C443.132 694.178 449.009 693.836 454.928 693.587C467.297 693.065 479.991 693.617 492.245 692.162C505.006 690.649 517.98 692.161 530.76 691.934C544.235 691.693 557.782 691.571 571.253 691.019C584.659 690.469 598.012 688.873 611.366 688.552C614.764 688.47 618.1 687.661 621.484 687.415C624.583 687.19 627.63 687.682 630.753 687.409C636.443 686.911 641.617 687.293 647.335 687.206C653.729 687.108 659.94 686.133 666.301 685.741C672.729 685.344 679.097 686.252 685.474 684.984C688.96 684.29 695.462 679.515 691.014 675.515Z" fill="white"/>
<path fill-rule="evenodd" clip-rule="evenodd" d="M438.561 106.71C438.552 106.71 438.544 106.711 438.537 106.71C438.504 106.747 438.471 106.787 438.44 106.822L438.561 106.71Z" fill="white"/>
<path fill-rule="evenodd" clip-rule="evenodd" d="M491.818 77.2658C492.625 74.4578 490.58 72.4466 489.209 70.2658C488.402 75.2139 485.924 74.9996 491.818 77.2658Z" fill="white"/>
<path fill-rule="evenodd" clip-rule="evenodd" d="M343.464 182.682C343.485 182.739 343.512 182.789 343.529 182.849C343.552 182.75 343.525 182.699 343.464 182.682Z" fill="white"/>
<path fill-rule="evenodd" clip-rule="evenodd" d="M321.14 178.976C321.323 179.39 321.726 182.249 322.016 182.263C324.607 182.386 321.45 177.549 319.794 177.266C317.399 178.812 321.196 179.104 321.14 178.976Z" fill="white"/>
<path fill-rule="evenodd" clip-rule="evenodd" d="M321.001 162.266C320.83 160.081 320.094 159.804 318.001 160.866C318.626 162.24 319.371 162.043 321.001 162.266Z" fill="white"/>
<path fill-rule="evenodd" clip-rule="evenodd" d="M292.001 108.767C293.001 108.933 294.002 109.1 295.001 109.266C294.414 107.933 293.826 106.599 293.239 105.266C292.826 106.433 292.414 107.6 292.001 108.767Z" fill="white"/>
<path fill-rule="evenodd" clip-rule="evenodd" d="M312.527 547.76C312.528 547.758 312.528 547.756 312.53 547.754C312.457 547.782 312.446 547.788 312.527 547.76Z" fill="white"/>
<path fill-rule="evenodd" clip-rule="evenodd" d="M108.513 275.414C110.631 271.872 114.647 267.498 119.219 268.97C123.489 270.346 124.672 275.945 126.512 279.466C130.093 286.314 131.207 278.962 132.001 274.806C131.354 266.483 128.116 252.936 117.162 254.371C108.83 255.465 101.635 268.849 103.222 276.762C104.554 283.414 106.805 278.27 108.513 275.414Z" fill="white"/>
<path fill-rule="evenodd" clip-rule="evenodd" d="M424.267 118.553C420.177 117.093 420.18 121.513 420.023 124.836C419.878 127.889 420.351 135.051 424.204 136.141C428.043 137.229 428.406 130.904 429.001 128.347C428.106 125.311 427.61 119.746 424.267 118.553Z" fill="white"/>
<path fill-rule="evenodd" clip-rule="evenodd" d="M429.001 111.92C425.998 109.265 423.993 108.452 420.158 110.167C418.183 111.049 415.364 112.968 415.055 115.388C414.09 122.919 426.355 113.465 429.001 111.92Z" fill="white"/>
<path fill-rule="evenodd" clip-rule="evenodd" d="M429.627 157.038C436.625 158.846 437.071 149.281 429.29 149.266C424.083 149.256 425.718 156.029 429.627 157.038Z" fill="white"/>
<path fill-rule="evenodd" clip-rule="evenodd" d="M376.132 127.304C373.521 127.686 372.598 129.325 373.158 131.941C373.804 134.959 375.441 134.984 378.369 135.266C385.429 135.288 380.822 126.62 376.132 127.304Z" fill="white"/>
<path fill-rule="evenodd" clip-rule="evenodd" d="M438.096 111.107C438.742 112.899 442.25 113.708 444.084 113.025C446.265 112.212 446.718 110.237 444.749 108.423C443.064 106.87 440.739 107.279 438.629 107.424C438.7 108.102 437.694 109.993 438.096 111.107Z" fill="white"/>
<path fill-rule="evenodd" clip-rule="evenodd" d="M218.562 315.266C221.899 315.261 218.75 309.617 216.001 309.266C216.059 311.012 215.944 315.27 218.562 315.266Z" fill="white"/>
</svg>
