<svg width="693" height="701" viewBox="0 0 693 701" fill="none" xmlns="http://www.w3.org/2000/svg">
<path fill-rule="evenodd" clip-rule="evenodd" d="M189.414 387C190.838 396.569 194.418 404.98 197.439 413.937C198.867 418.173 201.094 422.489 203.281 426.38C204.696 428.9 206.49 434.887 209.087 431.389C209.518 433.215 208.951 434.11 209.551 435.797C210.396 438.179 214.78 441.144 216.687 442.979C218.524 444.748 220.545 446.104 222.523 447.667C222.914 447.975 223.726 447.723 224.043 448.081C224.633 448.751 224.082 449.681 224.331 449.995C227.43 453.889 232.808 456.655 236.838 459.517C242.598 463.607 248.33 467.695 253.943 471.981C258.38 475.369 262.611 478.941 267.012 482.332C269.12 483.957 270.714 485.568 272.281 487.686C274.226 490.316 274.519 490.433 273.167 493.149C270.748 498.003 266.387 501.135 263.474 505.493C260.154 510.461 258.019 516.016 253.508 520.161C251.491 515.613 248.885 522.26 252.234 521.559C250.678 526.173 247.201 530.102 244.881 534.442C242.138 539.572 239.139 544.232 235.892 549.055C235.561 547.86 235.231 546.665 234.899 545.47C231.741 546.225 234.27 548.541 234.503 549.5C234.7 550.314 235.386 550.398 234.897 552.167C234.529 553.496 233.254 554.626 232.445 555.729C230.626 558.211 228.933 560.765 227.216 563.317C225.525 565.828 224.935 567.9 223.845 570.353C222.873 572.544 221.978 572.128 220.412 573.741C218.792 575.407 217.181 578.311 215.738 580.229C211.444 585.94 207.586 592.479 204.655 598.976C201.861 605.17 196.702 609.523 194.344 616.092C193.138 619.446 192.697 622.972 191.652 626.361C190.674 629.525 189.074 632.468 188.469 635.752C187.966 638.479 188.29 641.637 188.046 644.028C187.847 645.98 187.029 648.978 187.271 651.732C187.784 657.533 190.19 662.567 193.063 667.4C179.958 671.841 165.048 673.089 151.299 672.767C144.272 672.601 136.264 672.535 129.388 674.161C125.412 675.101 122.358 676.271 118.181 675.944C114.009 675.616 109.84 675.225 105.669 674.865C106.886 672.412 110.863 669.321 113.095 667.439C114.383 666.351 116.508 666.094 117.494 665.045C118.623 663.843 118.968 660.846 119.37 659.4C122.463 648.302 124.747 637.103 126.684 625.75C130.107 605.69 131.434 585.266 132.698 565.081C132.789 563.629 133.498 561.874 133.462 560.495C133.405 558.267 132.961 557.015 133.13 554.894C133.237 553.551 134.841 551.756 134.771 550.57C134.71 549.526 132.924 550.32 132.927 548.755C132.932 546.503 136.149 543.261 136.821 541.241C137.081 540.458 136.123 539.409 136.029 538.532L136.024 538.375C136.065 538.399 136.773 535.213 136.802 535.083C137.037 534.064 137.957 533.743 137.91 532.465C137.87 531.362 136.254 529.922 137.127 528.778C137.724 527.996 139.896 529.251 140.386 528.361C141.017 527.216 138.244 523.304 138.551 521.53C139.052 518.645 141.112 515.718 141.814 512.752C142.126 511.431 141.78 509.365 142.806 508.272C144.479 506.489 145.935 508.315 148.35 507.719C145.887 505.629 145.41 503.798 146.137 500.746C146.706 498.364 147.839 495.719 150.444 498.098C150.055 494.542 150.069 493.987 152.724 491.293C154.012 489.986 155.4 487.79 156.939 486.908C157.405 486.418 157.872 485.928 158.338 485.439C158.969 486.097 159.72 486.47 160.589 486.555C168.034 486.16 171.753 484.635 178.592 489.099C181.476 490.983 184.351 492.392 186.83 494.844C189.595 497.579 191.825 500.798 194.787 503.353C198.098 506.211 201.366 508.557 204.32 511.835C206.762 514.545 209.111 517.613 212.384 519.269C212.634 515.349 210.491 511.844 208.618 508.421C208.393 508.011 206.762 506.909 206.798 507.031C206.599 506.344 207.351 505.752 207.118 505.143C209.955 507.708 212.887 511.515 216.136 513.436C221.438 516.571 219.082 510.453 218.07 507.309C215.186 498.341 209.961 489.747 203.92 482.509C193.35 469.848 175.718 455.712 158.844 463.681C142.12 471.58 133.31 484.846 128.511 502.492C122.943 522.974 120.386 542.546 119.857 563.763C119.553 575.91 118.314 587.957 117.037 600.036C115.79 611.822 115.28 624.592 112.902 636.165C111.409 633.992 110.529 632.353 109.784 629.912C109.481 628.924 109.861 627.957 109.345 626.986C109.107 626.539 107.899 626.594 107.673 626.187C105.821 622.844 103.218 618.245 102.366 614.398C101.917 612.371 102.327 611.188 101.46 609.344C100.645 607.615 100.234 609.254 99.9243 607.12C99.8807 606.825 101.247 606.337 100.826 604.955C99.7624 601.464 99.0121 604.773 98.5019 604.751C97.4496 604.707 99.8261 597.546 99.6387 596.421C99.4232 595.129 98.8202 595.833 98.5264 594.891C98.2618 594.039 97.938 592.808 97.7388 591.626C97.1358 588.023 95.7698 586.846 95.7079 582.947C95.6342 578.241 93.8898 575.211 93.1086 570.715C92.964 569.887 93.8689 568.957 93.7052 568.233C93.366 566.725 92.2737 565.473 91.8489 563.88C90.9613 560.548 92.733 557.674 92.4865 554.464C92.5265 554.989 91.4897 552.102 91.4251 551.847C91.0513 550.379 91.2114 548.413 90.9158 546.815C90.6375 545.316 89.7143 543.315 90.5411 541.914C91.1059 540.955 92.3764 541.216 93.1158 540.147C90.3992 539.272 90.9695 540.227 89.9881 537.23C89.0513 534.368 88.9604 531.97 92.0636 533.862C91.2796 531.931 89.8199 529.562 89.5015 527.494C89.2114 525.605 89.9063 523.776 89.7071 521.896C89.175 516.86 87.6225 513.796 90.4856 508.91C86.7139 506.981 88.3465 500.264 87.7617 496.61C87.1287 492.644 85.5844 488.852 88.5611 486.248C84.7867 483.537 86.7058 474.743 86.7758 470.543C86.8431 466.526 86.5293 462.454 86.5766 457.786C86.6048 455.149 85.8617 453.335 85.2324 450.726C84.4202 447.364 85.246 444.783 84.9686 441.532C84.7476 438.948 83.7717 436.353 83.6399 433.601C83.5043 430.793 83.7381 427.642 83.3425 424.885C83.0132 422.602 82.4675 420.968 82.4102 418.502C82.3939 417.771 82.0373 416.459 82.1874 415.779C82.182 415.804 83.2051 413.429 83.1978 414.477C83.2279 410.572 81.2725 406.756 82.2975 401.997C83.1406 398.089 83.8472 398.73 87.789 398.972C90.8985 399.163 94.0072 399.368 97.1231 399.38C101.159 399.396 114.14 396.597 117.061 399.442C119.48 401.798 118.074 412.95 118.239 416.317C118.505 421.8 113.256 423.477 111.8 429.076C109.026 439.751 113.609 453.842 126.117 454.754C137.784 455.606 148.976 446.013 147.374 434.222C146.731 429.49 144.551 424.34 140.436 421.571C136.455 418.892 127.999 420.912 125.226 417.683C123.933 416.176 124.446 410.32 124.296 408.355C124.078 405.496 122.768 399.776 124.652 398.422C126.78 396.891 133.351 396.861 135.779 396.855C139.221 396.846 142.353 396.849 145.768 396.271C153.326 394.992 160.861 395.043 168.286 393.369C175.658 391.707 182.469 389.97 189.414 387ZM279.489 387C281.024 386.962 284.323 399.67 285.192 401.912C287.569 408.039 288.543 414.219 289.865 420.662C291.223 427.276 292.439 433.999 294.198 440.517C295.519 445.414 295.223 450.157 297 455.087C296.53 458.139 296.952 463.413 293.58 464.726C290.532 465.912 288.551 463.015 287.418 460.505C284.361 453.723 285.343 444.673 284.228 437.381C282.913 428.773 282.836 420.293 281.804 411.673C280.895 404.078 277.817 394.486 279.489 387ZM146.404 212.855C149.746 216.628 154.656 215.045 159.059 214.626C157.191 218.872 154.509 223.416 154.409 228.17C154.358 230.637 155.686 232.826 155.671 235.179C155.655 237.512 153.763 239.689 152.865 241.855C148.832 251.574 147.857 264.742 147.706 275.178C147.395 296.768 153.858 319.765 167.604 336.693C170.504 340.265 173.765 343.565 177.41 346.384C179.392 347.915 188.521 351.553 188.948 353.705C189.776 357.87 180.408 357.459 177.85 357.832C172.471 358.616 167.153 359.742 161.766 360.467C140.178 363.37 118.867 365.689 97.1027 364.516C94.6949 364.387 90.1922 365.586 87.9162 364.622C85.2419 363.49 86.1542 361.237 86.2188 358.602C86.3853 351.839 85.4129 345.187 84.8453 338.469C84.3859 333.033 85.6303 333.758 89.6154 330.75C93.7361 327.639 97.7649 321.863 99.1103 316.913C102.944 320.004 100.167 321.666 100.713 325.632C101.379 330.469 104.649 329.676 106.806 326.439C110.152 321.417 109.856 313.479 106.729 308.46C103.928 303.966 93.9344 297.065 88.2646 299.12C80.721 301.857 88.9314 311.038 92.5008 313.027C91.6203 315.568 86.7473 317.801 84.576 319.196C81.5615 321.133 77.65 322.256 74.1652 323.329C64.8677 326.189 55.8322 326.605 46.2373 325.203C37.0172 323.856 26.459 320.854 20.5108 313.297C17.9383 310.029 15.5733 305.054 18.0411 300.962C20.2643 297.273 25.7604 297.018 28.4629 293.444C29.63 291.903 30.1912 289.856 31.2637 288.363C33.0084 285.935 32.3061 286.367 35.5863 286.646C40.8959 287.096 46.5575 287.438 51.7861 286.159C55.7158 285.197 59.5427 283.401 63.3877 282.254C67.4693 281.038 71.3389 278.479 74.4954 275.723C81.7752 269.362 88.9023 262.45 95.6427 255.518C102.344 248.628 106.636 239.759 112.909 232.452C120.018 224.173 126.854 213.589 137.274 209.031C143.261 206.413 143.152 209.182 146.404 212.855ZM171.718 240.379C172.731 241.439 172.086 247.518 173.053 249.457C176.767 256.909 183.263 255.263 189.984 253.697C190.563 259.669 191.011 266.395 193.421 271.96C194.498 274.445 196.199 276.579 197.068 279.176C197.618 280.822 197.396 282.91 198.018 284.44C198.69 286.094 200.393 287.368 201.389 288.999C202.591 290.968 203.222 292.806 204.805 294.529C208.269 298.299 212.973 301.494 215.623 305.991C216.711 307.836 216.902 309.204 216.869 311.353C216.858 312.124 216.316 314.953 216.558 315.524C217.441 317.617 220.618 318.157 220.969 320.86C221.168 322.379 220.341 322.197 220.06 323.462C219.722 324.985 219.964 326.03 219.407 327.726C218.522 330.418 214.62 335.484 215.025 337.803C209.284 340.963 199.187 342.966 192.754 341.523C186.177 340.048 179.602 332.58 175.357 327.688C165.393 316.204 159.591 298.064 159.047 283.041C158.771 275.417 159.786 267.758 160.146 260.147C160.348 255.859 159.433 243.781 163.066 240.777C163.878 240.106 171.006 239.634 171.718 240.379ZM118.105 254.759C109.243 255.268 101.635 269.144 103.276 277.249C104.623 283.902 106.895 278.757 108.621 275.9C110.657 272.527 114.343 268.447 118.719 269.312C123.581 270.275 124.821 276.198 126.804 279.953C130.42 286.801 131.546 279.448 132.348 275.292C131.71 267.164 128.726 254.151 118.105 254.759Z" fill="#FF6E6C"/>
<path fill-rule="evenodd" clip-rule="evenodd" d="M652.369 669.393C647.748 670.827 643.416 672.94 638.962 674.827C633.908 676.97 630.379 677.346 624.86 677.337C603.491 677.305 582.344 678.402 560.937 678.834C555.089 678.952 549.154 679.01 543.307 678.904C540.945 678.861 538.63 678.593 536.28 678.399C534.762 678.274 528.142 679.184 527.26 678.652C524.778 677.159 526.251 667.543 525.951 664.462C525.427 659.112 524.072 653.956 522.185 648.929C515.435 630.944 504.084 613.398 489.731 600.562C509.138 592.412 530.309 581.666 551.846 586.501C560.049 588.342 570.921 590.752 575.146 598.688C579.654 607.16 583.602 616.475 588.757 624.587C594.517 633.651 600.632 641.418 608.971 648.216C612.262 650.9 628.843 667.382 626.324 654.659C625.517 650.578 622.532 646.785 620.148 643.453C618.935 641.758 612.4 636.2 613.417 634.236C614.558 632.034 626.345 630.482 628.871 629.781C634.089 628.335 639.278 626.791 644.475 625.273C642.595 628.815 632.372 642.217 638.904 645.642C641.304 646.901 647.511 642.443 650.14 641.66C654.621 640.327 658.716 641.205 663.12 642.525C663.006 644.687 658.759 644.715 657.346 646.192C655.282 648.353 653.832 654.18 655.451 656.769C658.467 661.593 670.141 656.67 675.362 658.501C669.494 664.556 660.287 666.935 652.369 669.393ZM360.784 470.273C360.845 470.398 360.734 470.572 360.032 471.181C359.818 470.412 359.436 470.243 358.968 470.454C359.345 470.044 359.656 469.828 360.032 471.181C360.328 470.924 360.574 470.606 360.784 470.273ZM362.569 467.734C362.429 468.197 362.11 468.414 361.623 468.402C361.649 468.322 361.673 468.246 361.692 468.187C362.015 467.177 362.445 467.349 362.302 465.49C362.495 465.801 362.643 466.114 362.534 466.427C362.842 466.899 362.852 467.334 362.569 467.734ZM310.628 555.013C311.121 553.823 311.251 552.44 311.887 551.345C311.264 552.455 311.254 553.824 310.628 555.013ZM511.395 677.894C503.66 677.585 496.122 677.723 488.389 678.059C471.866 678.779 455.268 678.885 438.777 680.21C430.71 680.859 422.954 681.106 414.863 680.835C407.788 680.597 400.689 680.849 393.636 680.256C385.892 679.605 378.641 677.464 370.826 677.348C363.354 677.237 354.455 676.373 347.207 677.464C345.955 677.652 345.281 678.45 343.805 678.642C341.764 678.908 338.893 678.077 336.805 677.936C333.141 677.689 329.089 678.095 325.513 677.24C324.285 676.948 323.425 676.497 322.234 676.016C321.159 675.583 318.749 675.249 318.158 675.094C321.566 673.824 314.006 671.234 313.397 671.093C313.243 671.609 313.583 672.332 314.142 673.032C312.207 671.548 314.279 672.096 311.115 670.592C309.785 669.959 307.27 669.552 305.778 669.384C304.343 669.223 303.569 669.392 302.916 669.356C303.048 669.21 303.178 669.014 303.304 668.753C304.36 666.575 301.143 664.088 299.335 665.551C299.544 665.977 299.883 666.763 300.293 667.536C300.274 667.515 300.259 667.499 300.241 667.477C299.57 666.703 298.31 664.723 297.055 663.391C298.646 662.513 296.699 661.319 295.966 660.094C295.463 660.37 294.907 660.604 294.619 660.988C295.036 660.115 296.073 659.325 295.465 657.628C295.292 657.143 294.832 656.412 294.255 655.898C294.803 656.327 295.372 656.802 296.11 656.7C295.188 655.304 294.849 654.778 294.498 653.378C294.251 652.393 295.629 651.442 294.32 650.552C294.36 649.623 294.912 645.359 292.596 646.847C292.596 646.847 292.596 646.847 292.595 646.848C292.596 646.846 292.596 646.844 292.597 646.843C294.079 642.309 296.6 637.628 298.474 633.195C302.839 622.872 307.326 612.471 311.894 602.238C319.447 585.31 327.333 568.425 336.023 551.952C344.639 535.621 354.045 519.827 362.177 503.271C370.02 487.299 379.17 472.016 387.068 456.069C390.789 448.558 395.774 442.347 397.043 433.62C397.453 430.793 397.583 424.899 393.305 425.96C390.524 426.649 386.631 433.611 384.837 435.875C383.229 433.668 374.157 420.695 371.725 428.424C369.638 435.051 382.702 437.937 377.49 444.612C376.973 445.274 374.832 445.942 374.129 446.554C372.761 447.745 371.509 449.846 370.452 451.282C368.043 454.557 366.05 458.037 363.823 461.424C363.405 462.062 361.873 463.503 361.755 464.249C361.692 464.645 362.025 465.052 362.285 465.464C360.473 467.067 358.188 468.484 357.763 471.081C357.889 471.136 358.005 471.145 358.116 471.124C356.432 472.885 354.3 477.154 353.995 477.599C351.726 480.9 349.499 484.353 347.257 487.835C346.045 489.718 343.925 491.932 343.229 494.047C342.989 494.778 343.694 496.089 343.036 496.774C341.307 498.574 339.616 498.191 338.323 501.811C337.814 503.236 337.769 505.229 336.951 506.452C335.639 508.413 333.763 509.337 332.537 511.447C330.212 515.451 327.425 519.847 325.96 523.887C325.954 523.904 325.954 523.919 325.947 523.935C325.897 523.619 325.828 523.276 325.746 522.902C324.916 524.392 324.087 525.884 323.258 527.376C324.693 527.096 325.461 526.705 325.811 526.067C325.77 526.281 325.702 526.502 325.571 526.734C324.837 527.072 324.065 527.285 323.258 527.376C322.701 528.294 322.181 529.231 321.695 530.188C321.457 530.672 320.657 533.622 320.32 535.856C320.196 534.989 320.072 534.211 320.058 534.108C319.005 536.134 317.953 538.16 316.9 540.185C318.81 538.717 318.703 538.468 320.521 538.432C318.229 538.478 314.76 541.697 314.441 544.789C314.39 545.292 314.697 545.842 314.97 546.361C314.907 546.352 314.845 546.344 314.772 546.338C312.371 546.134 313.073 546.618 312.163 548.618C312.511 548.479 314.532 547.691 315.291 547.076C315.374 547.339 315.388 547.58 315.26 547.785C314.665 548.73 309.804 548.119 312.925 550.218C310.331 548.475 309.035 554.198 309.918 556.165C309.22 557.173 308.388 558.102 307.606 559.035C305.683 561.328 304.62 563.067 303.361 565.859C301.216 570.613 298.658 575.332 296.313 579.995C295.423 581.767 294.386 583.278 293.294 584.924C291.358 587.845 291.699 587.116 293.226 590.298C292.653 590.112 291.805 590.563 290.985 591.218C291.431 590.461 291.999 589.899 293.226 590.298C291.288 586.261 289.624 591.181 288.732 593.494C288.772 593.494 288.805 593.483 288.842 593.481C288.72 593.661 288.629 593.821 288.573 593.948C287.662 595.825 286.588 596.975 287.365 598.943C287.589 597.848 288.477 597.001 288.854 596.06C288.323 598.355 285.819 601.105 285.063 602.625C284.435 603.888 284.346 605.213 283.574 606.587C282.849 607.877 282.196 608.746 281.64 610.222C278.948 617.358 277.637 625.307 275.939 632.802C273.93 641.659 273.104 651.071 272.674 660.136C272.549 662.771 272.48 665.1 273.429 667.602C273.567 667.965 275.045 669.895 275.007 670.601C274.802 674.289 267.876 673.522 265.212 673.416C260.977 673.246 258.094 673.93 254.026 674.519C250.273 675.061 246.59 674.764 242.779 675.685C236.449 677.214 227.024 679.637 220.905 676.277C217.946 674.653 214.22 669.944 212.073 667.301C209.43 664.049 208.54 660.737 208.067 656.594C207.259 649.506 207.203 641.675 209.668 634.902C221.117 603.428 240.758 574.817 257.697 546.174C273.592 519.296 291.411 493.82 307.338 467.014C315.757 452.844 325.887 438.825 335.902 425.729C346.138 412.344 353.442 397.78 360.659 382.629C368.138 386.596 376.057 390.675 384.422 392.468C389.177 393.487 393.899 393.178 398.695 393.507C402.229 393.749 405.186 394.584 408.786 394.676C424.57 395.077 442.808 393.187 457.896 388.525C461.516 387.406 464.752 386.246 468.147 384.634C472.479 382.577 473.65 381.704 473.896 386.486C474.372 395.743 475.883 404.742 476.594 413.945C477.288 422.916 479.095 431.762 480.692 440.625C481.502 445.114 482.374 449.599 483.037 454.111C483.542 457.535 485.062 462.297 484.458 465.72C483.792 469.498 480.212 473.332 478.163 476.556C476.084 479.827 473.994 483.091 471.92 486.365C468.032 492.507 464.161 498.334 459.569 503.968C451.057 514.414 443.809 525.337 435.737 536.124C427.166 547.578 420.042 559.95 411.63 571.521C407.187 577.634 402.643 583.399 399.731 590.283C397.315 595.993 392.453 601.246 389.482 606.896C385.578 614.316 380.612 621.112 376.736 628.569C374.029 633.777 368.803 639.074 368.255 645.127C367.336 655.282 376.991 645.134 379.225 642.303C382.223 638.505 385.51 631.859 390.013 629.8C393.229 628.33 397.927 628.49 401.418 627.339C405.077 626.133 408.668 624.881 412.362 623.779C419.558 621.628 426.501 618.593 433.497 615.863C440.738 613.037 447.977 610.185 455.082 607.042C458.372 605.588 461.143 604.842 464.657 604.209C466.169 603.936 471.58 601.38 472.771 601.597C474.771 601.961 477.53 607.842 479.047 609.354C481.384 611.686 484.015 613.592 486.199 616.1C490.501 621.042 495.06 626.307 498.791 631.676C507.127 643.672 514.924 656.779 517.889 671.229C519.22 677.715 517.667 678.145 511.395 677.894ZM294.59 662.211C294.539 662.101 294.507 661.998 294.486 661.897C294.512 661.998 294.536 662.097 294.59 662.211C295.577 661.625 295.838 661.936 295.939 662.415C295.442 662.096 294.979 661.98 294.59 662.211ZM292.291 655.514C292.25 655.333 292.232 655.166 292.225 655.007C292.24 655.175 292.253 655.343 292.291 655.514C292.831 655.152 293.282 655.255 293.715 655.514C293.254 655.264 292.757 655.201 292.291 655.514ZM293.283 651.13C293.586 651.108 293.931 650.942 294.32 650.552C294.001 650.873 293.7 651.21 293.427 651.561C293.432 651.518 293.439 651.477 293.442 651.432C293.448 651.348 293.379 651.244 293.283 651.13ZM194.991 614.411C192.744 619.709 191.808 625.506 189.899 630.932C188.44 635.083 187.857 639.183 187.474 643.524C188.806 644.506 188.776 645.37 187.384 646.118C187.285 647.062 187.252 648.009 187.284 648.958C186.922 651.722 187.455 654.127 188.186 656.776C189.345 660.977 190.814 663.995 192.969 667.626C179.889 672.064 164.986 673.313 151.262 672.992C143.844 672.818 135.524 672.802 128.296 674.631C120.513 676.602 113.688 675.779 105.693 675.09C106.861 672.737 111.325 668.811 113.586 667.176C114.737 666.345 116.629 666.203 117.502 665.272C118.747 663.944 118.894 661.367 119.377 659.627C122.461 648.528 124.744 637.336 126.681 625.984C130.094 605.972 131.68 585.487 132.686 565.325C132.772 563.619 133.653 561.705 133.61 560.09C133.554 557.968 132.947 557.273 133.118 555.14C133.229 553.749 134.896 551.861 134.775 550.624C134.699 549.849 132.801 550.518 132.915 549.002C133.092 546.665 136.117 543.586 136.804 541.489C137.109 540.556 135.971 539.627 136.006 538.608C135.996 538.899 136.757 535.456 136.785 535.332C137.015 534.343 137.942 533.927 137.892 532.715C137.845 531.613 136.24 530.17 137.11 529.028C137.989 527.873 139.81 529.621 140.364 528.611C140.994 527.466 138.224 523.556 138.532 521.783C139.071 518.679 141.182 515.341 142.009 512.19C142.318 511.008 141.82 509.548 142.781 508.525C144.454 506.744 145.905 508.571 148.318 507.973C145.924 505.94 145.397 503.98 146.108 501.001C146.684 498.582 147.794 495.964 150.408 498.354C150.064 495.204 149.695 494.884 151.958 492.253C153.911 489.981 156.442 487.26 158.78 485.52C162.274 482.917 167.851 481.579 171.996 481.273C176.519 480.94 182.079 483.364 185.502 486.782C189.666 490.94 195.051 493.971 199.775 497.946C204.819 502.19 209.15 507.231 213.996 511.73C214.991 512.653 216.823 515.236 218.36 514.792C220.866 514.067 218.842 510.326 218.292 508.661C214.385 496.822 207.362 484.894 197.702 476.817C192.72 472.65 187.764 467.38 181.973 464.346C177.295 461.894 173.641 462.28 168.667 462.105C164.415 461.955 163.542 461.704 159.751 463.493C157.063 464.761 154.402 465.999 151.866 467.55C147.811 470.028 143.628 473.041 140.631 476.786C132.652 486.76 129.538 499.442 126.402 511.596C122.952 524.964 120.577 538.026 120.158 551.897C119.733 566.011 119.079 579.917 117.687 593.974C116.964 601.284 116.131 608.579 115.186 615.864C114.316 622.581 114.271 629.8 112.917 636.396C111.213 633.912 110.683 631.994 109.742 629.318C109.107 627.516 108.463 627.578 107.544 626.249C105.597 623.438 103.163 618.105 102.396 614.634C101.926 612.512 102.361 611.448 101.491 609.581C101.222 609.004 99.7603 609.456 99.526 608.542C99.3579 607.887 100.273 607.38 100.233 607.157C100.137 606.64 101.559 606.066 100.331 604.44C98.5859 602.132 99.4787 605.028 98.5369 604.988C97.7521 604.955 100.107 596.987 99.8302 595.831C99.7321 595.422 98.397 595.368 98.2898 594.988C97.9656 593.839 98.0391 592.175 97.7231 590.928C96.9501 587.884 95.803 586.664 95.7467 583.188C95.6722 578.594 93.9702 575.342 93.1509 570.959C92.9929 570.116 93.9202 569.204 93.7467 568.477C93.3952 566.993 92.2971 565.694 91.893 564.124C91.1146 561.101 92.1536 556.836 91.9411 554.378C91.754 552.227 91.1509 548.735 90.754 546.063C90.1083 541.713 91.269 543.133 93.1582 540.396C90.5388 539.551 90.8721 540.294 90.0347 537.479C89.0692 534.228 89.1582 532.311 92.1073 534.111C91.3235 532.18 89.8685 529.814 89.5488 527.744C89.2518 525.822 89.9548 524.056 89.754 522.147C89.2091 516.981 87.5969 514.177 90.5315 509.164C86.7595 507.232 88.4025 500.578 87.8113 496.866C87.1746 492.859 85.6278 489.117 88.6096 486.507C85.5434 484.301 86.7577 477.973 86.7704 474.594C86.7759 473.061 87.2954 470.363 87.1637 469.002C87.0719 468.045 86.4207 467.402 86.2318 466.288C85.5352 462.157 87.0738 458.067 86.1483 453.958C85.1047 449.327 84.983 445.378 84.6251 440.84C84.2791 436.442 83.5988 431.87 83.3063 427.362C83.0901 424.016 81.785 420.396 82.3863 416.93C82.4335 416.657 83.23 414.191 83.2527 414.748C83.2155 413.857 82.567 412.754 82.537 412.223C82.3236 408.211 82.2473 404.94 82.4189 400.868C82.4108 400.868 82.4017 400.866 82.3935 400.867C82.8903 400.565 83.1583 399.937 83.1792 398.959C86.9321 398.596 91.0374 399.513 94.8303 399.614C98.9174 399.722 102.992 399.518 107.074 399.33C109.701 399.208 115.361 397.964 117.361 400.157C118.81 401.746 117.899 409.922 117.995 412.048C118.11 414.561 119.381 418.504 117.912 420.703C117 422.067 114.939 422.612 113.876 424.109C113.23 425.02 112.704 426.548 112.361 427.538C111.322 430.52 110.909 433.739 111.068 436.887C111.817 451.628 123.631 458.397 136.895 452.457C148.45 447.283 151.592 431.633 141.664 422.864C139.327 420.799 136.835 420.275 133.853 419.765C131.957 419.441 126.784 419.64 125.545 418.287C124.315 416.945 124.615 412.757 124.479 411.014C124.26 408.217 123.135 404.061 123.745 401.362C122.746 399.113 123.412 398.162 125.746 398.507C126.486 398.359 127.225 398.21 127.963 398.061C129.825 397.724 131.655 397.317 133.546 397.187C136.916 396.956 140.202 397.356 143.575 396.905C146.882 396.462 150.125 395.635 153.439 395.207C156.961 394.752 160.419 395.258 163.904 394.66C171.137 393.422 178.909 391.756 185.677 388.913C187.49 388.152 190.561 385.959 192.572 386.321C194.981 386.755 194.337 388.287 195.031 390.578C198.878 403.284 206.873 415.837 215.334 425.939C223.321 435.474 233.851 443.164 243.374 451.161C249.148 456.01 254.692 461.107 260.052 466.406C263.942 470.253 268.117 476.267 273.141 478.486C274.286 478.528 278.702 478.022 279.51 478.85C280.442 479.803 280.384 480.336 280.013 480.931C281.08 478.119 276.002 478.593 273.141 478.486C273.465 479.031 276.678 485.474 277.473 481.89C277.934 482.165 278.395 482.44 278.857 482.715C276.573 487.759 273.617 492.815 270.405 497.329C268.065 500.621 265.041 503.002 262.94 506.413C260.289 510.718 258.08 515.186 254.722 519.021C248.023 526.672 244.295 536.959 238.455 545.448C235.648 549.528 234.183 553.32 231.262 557.381C228.978 560.559 225.278 564.579 223.946 568.235C223.415 569.697 223.985 570.965 223.012 572.319C222.397 573.175 220.575 574.104 219.716 574.991C216.303 578.516 213.642 583.545 210.965 587.692C208.114 592.107 206.128 596.689 203.713 601.289C201.236 606.009 197.136 609.353 194.991 614.411ZM106.185 634.558C104.411 634.586 103.746 634.595 103.548 633.817C103.49 633.583 103.471 633.278 103.48 632.882C103.471 633.278 103.49 633.583 103.548 633.817C103.746 634.595 104.411 634.585 106.185 634.557V634.558ZM106.407 627.949C106.59 628.445 105.485 629.288 102.547 628.977C105.457 629.285 106.57 628.449 106.407 627.949ZM99.1826 644.542C99.446 644.775 99.7013 645.018 99.9501 645.268C99.7022 645.018 99.446 644.775 99.1826 644.542ZM80.8595 679.239C78.4671 678.403 72.2428 676.924 68.1902 675.176C69.9976 675.682 71.8795 676.099 72.6034 676.352C75.3545 677.314 78.1065 678.277 80.8595 679.239C84.7577 665.186 99.3943 659.831 111.918 654.642C105.885 654.389 103.729 649.151 100.083 645.408C103.722 649.142 105.912 654.39 111.918 654.642C99.3961 659.83 84.7577 665.188 80.8595 679.239ZM67.1693 665.092C67.0322 665.32 66.8959 665.556 66.7588 665.812C66.3855 666.511 64.9795 669.633 64.3891 671.683C64.2702 669.576 65.5208 667.111 67.1693 665.092ZM80.9485 398.275C81.1719 398.186 81.3517 398.172 81.5152 398.184C80.8604 398.214 80.6824 398.991 80.6542 400.07C80.0856 399.466 79.9503 398.674 80.9485 398.275ZM126.406 430.747C130.671 432.865 134.81 434.098 138.879 436.66C133.887 440.541 117.95 446.808 118.426 434.815C118.482 433.418 119.299 429.663 120.574 428.832C122.514 427.568 124.715 429.907 126.406 430.747ZM77.5798 374.904C96.3616 381.458 118.242 379.838 137.332 376.641C157.842 373.207 178.319 371.185 198.187 364.756C198.207 367.523 199.407 370.42 197.214 372.701C195.496 374.489 191.77 374.827 189.5 375.58C183.56 377.55 178.458 380.419 172.249 381.596C165.295 382.915 158.347 382.888 151.333 383.668C148.793 383.951 146.404 384.406 144.018 384.864C140.714 384.914 138.125 385.362 134.826 386.278C123.026 386.334 111.306 386.684 99.555 385.278C93.5869 384.563 87.6841 383.688 81.7005 383.079C76.0966 382.508 77.3482 380.093 77.5798 374.904ZM70.3945 324.489C59.3338 327.544 47.9261 326.63 37.0433 323.132C29.1742 320.604 18.7347 316.899 17.0799 307.322C15.9872 301.004 19.7737 299.858 24.2269 297.236C26.3577 295.981 27.394 295.033 28.8273 292.907C29.6774 291.644 30.4421 288.476 31.3967 287.612C33.7228 285.507 41.0642 287.355 44.7036 287.192C50.1277 286.95 53.8043 285.127 58.7943 283.518C67.608 280.675 73.1856 277.228 80.0275 270.724C86.6832 264.398 94.4979 257.963 99.8793 250.507C105.906 242.159 111.673 234.035 118.238 226.073C123.103 220.173 131.928 208.363 140.656 208.417C145.038 208.445 144.389 212.577 147.869 214.677C151.046 216.594 155.202 215.26 158.693 214.928C156.392 220.159 153.199 225.54 154.329 231.46C154.962 234.775 155.299 235.92 154.004 239.057C152.821 241.923 151.541 244.463 150.808 247.532C147.953 259.492 146.603 272.954 147.8 285.184C149.872 306.355 157.127 328.214 172.996 343.16C176.613 346.567 180.592 349.291 185.023 351.533C189.442 353.769 189.809 356.098 184.334 357.097C173.67 359.042 162.844 360.371 152.104 361.815C141.378 363.257 130.461 364.764 119.645 364.985C114.294 365.095 108.975 365.762 103.626 365.382C100.962 365.192 98.3143 364.716 95.6432 364.642C93.3108 364.578 89.8285 365.743 87.6578 364.824C84.26 363.386 85.9493 353.441 85.7005 349.988C85.4135 346.025 82.913 338.593 84.398 334.847C85.4416 332.217 89.2717 331.114 91.2563 329.067C94.5124 325.708 97.5923 321.726 98.8357 317.147C102.959 320.475 99.4115 322.61 100.663 326.668C102.029 331.096 104.548 329.704 106.52 326.666C109.811 321.594 109.59 313.756 106.442 308.699C104.62 305.775 101.66 303.577 98.6241 302.013C96.1663 300.748 90.7277 298.267 88.0065 299.366C80.6215 302.351 88.4816 311.17 92.2354 313.264C91.3335 315.869 84.9366 319.628 82.498 320.741C78.8749 322.394 74.2837 323.415 70.3945 324.489ZM171.756 243.715C171.853 245.134 172.004 246.49 172.473 247.848C173.428 250.616 175.339 253.015 177.972 254.385C183.08 257.045 193.44 253.215 197.93 250.078C197.93 259.588 199.635 267.153 202.363 276.175C205.003 284.904 210.405 292.008 215.001 299.758C217.384 303.777 219.572 307.926 222.937 311.226C226.358 314.579 226.927 315.865 226.615 320.81C226.102 328.956 222.222 334.511 214.89 337.884C209.081 341.104 197.085 343.72 190.757 341.03C184.104 338.2 177.623 330.876 173.315 325.238C163.526 312.43 158.562 293.139 159.157 277.215C159.466 268.921 159.905 260.434 160.699 252.17C161.277 246.149 161.066 237.493 169.824 240.206C172.653 241.082 171.528 240.429 171.756 243.715ZM205.362 354.932C206.206 353.212 213.638 351.483 214.933 352.492C216.895 354.022 216.977 362.948 217.667 365.488C218.76 369.52 220.199 373.505 221.932 377.308C225.569 385.284 230.788 393.522 236.98 399.735C243.397 406.17 250.77 410.629 258.561 415.241C260.787 416.56 262.942 418.15 265.229 419.347C266.189 419.849 267.968 420.084 268.723 420.839C270.593 422.709 269.729 426.545 269.707 428.979C269.617 438.731 269.65 448.166 270.942 457.785C263.308 451.877 256.411 444.377 249.615 437.488C242.488 430.264 233.312 425.495 226.555 417.845C220.407 410.886 215.568 402.774 211.051 394.724C209.073 391.197 205.303 386.701 205.168 382.578C205.021 378.133 207.048 373.427 207.072 368.823C207.087 365.566 204.107 357.49 205.362 354.932ZM297.03 454.479C296.566 457.424 296.937 463.736 292.84 464.37C290.02 464.807 288.285 462.131 287.252 459.89C284.13 453.114 285.162 444.077 283.997 436.798C282.62 428.205 282.587 419.732 281.522 411.126C280.584 403.538 277.453 393.966 279.16 386.488C280.707 386.45 284.886 401.082 285.788 403.402C287.644 408.179 289.781 412.199 291.387 417.152C293.514 423.711 295.359 429.976 296.339 436.84C297.028 441.665 299.613 450.233 297.03 454.479ZM319.689 422.127C315.866 428.061 311.738 434.245 306.352 439.195C306.352 436.427 304.282 427.427 305.685 425.287C307.356 422.738 316.841 422.621 319.689 422.127ZM171.405 188.419C174.653 186.945 178.277 186.481 181.552 184.957C184.684 183.501 187.01 182.622 190.486 182.336C202.566 181.345 214.866 184.437 226.043 187.819C232.195 189.68 237.048 193.758 242.244 197.291C247.619 200.945 250.566 204.127 252.907 210.31C257.942 223.611 261.041 236.187 263.044 250.213C265.077 264.443 261.776 278.827 261.982 293.087C262.184 307.155 263.188 321.802 267.658 335.197C271.113 345.554 277.237 362.226 290.144 363.259C302.396 364.239 312.761 351.606 317.826 342.123C331.217 317.05 336.249 288.389 336.975 260.249C338.865 250.832 339.947 240.679 343.224 231.648C346.868 237.347 349.84 243.463 353.19 249.337C356.867 255.784 356.631 261.044 356.312 268.37C356.065 274.066 354.056 279.509 353.325 285.181C352.481 291.729 350.931 298.114 350.559 304.727C350.122 312.526 350.557 320.406 349.9 328.185C349.348 334.727 347.904 341.297 346.856 347.779C345.838 354.077 345.713 360.278 345.862 366.556C346.008 372.633 348.109 378.535 353.258 381.787C345.605 391.231 336.064 405.138 323.244 407.376C318.946 408.126 314.932 408.711 310.579 409.029C307.041 409.287 302.906 411.273 299.854 409.067C294.6 405.269 293.565 396.805 291.58 391.27C290.206 387.441 276.591 356.083 269.424 364.967C268.147 366.55 268.448 372.359 268.253 374.588C267.971 377.802 268.101 381.07 267.999 384.295C267.868 388.4 267.504 392.563 267.789 396.667C267.962 399.142 269.448 401.814 266.645 402.41C264.051 402.962 258.582 397.808 256.693 396.473C254.16 394.682 251.429 393.338 248.862 391.612C243.586 388.066 239.401 383.6 235.646 378.539C231.867 373.446 228.502 367.731 225.944 361.916C224.646 358.965 223.585 355.941 222.5 352.91C222.524 352.978 220.89 349.156 220.98 348.889C221.268 348.034 224.723 346.615 225.576 345.942C235.324 338.248 237.276 319.116 234.685 307.925C233.116 301.154 227.928 295.205 224.242 289.441C220.683 283.872 216.917 278.418 213.964 272.491C210.708 265.963 208.192 259.108 205.271 252.432C203.861 249.21 202.17 247.552 204.275 244.601C205.565 242.792 208.235 242.051 209.384 240.071C210.541 238.079 210.661 234.235 208.579 232.811C206.302 231.252 202.994 233.429 200.907 234.278C198.124 235.41 195.343 235.959 192.501 236.829C189.276 237.819 186.373 240.006 182.948 240.006C184.789 233.665 192.745 234.266 195.326 228.37C197.089 224.34 196.859 216.841 191.362 216.176C188.24 215.799 185.778 218.181 183.457 219.779C180.402 221.881 178.096 222.273 174.517 222.932C173.199 223.175 171.059 224.41 169.81 223.99C167.781 223.31 168.952 223.73 170.014 222.063C171.593 219.584 175.326 217.164 177.583 215.355C182.658 211.288 189.69 208.356 194.086 203.627C196.992 200.5 198.42 189.986 192.899 188.309C190.685 187.635 187.083 189.831 184.914 190.502C181.248 191.637 177.513 192.54 173.897 193.834C167.472 196.132 161.302 198.862 154.783 200.924C158.497 195.637 165.551 191.078 171.405 188.419ZM388.674 186.87C388.674 190.502 390.06 197.409 388.496 200.712C387.086 203.686 378.52 205.344 375.494 206.48C365.698 210.16 355.982 214.258 345.968 217.305C356.288 202.02 371.625 193.146 388.674 186.87ZM387.23 137.514C384.691 141.16 380.279 146.103 375.116 144.38C369.551 142.523 365.191 134.001 368.034 128.593C370.464 123.974 377.395 121.075 381.676 124.716C382.61 125.51 383.219 127.541 384.113 128.162C384.687 128.56 385.596 127.495 386.296 127.921C388.367 129.178 389.164 132.247 392.15 131.99C393.532 131.872 397.962 128.261 398.868 127.338C401.294 124.867 400.449 122.335 400.832 119.088C401.361 114.614 404.447 113.928 407.999 111.62C411.38 109.421 414.099 106.143 417.444 104.026C421.438 101.497 419.149 104.703 422.797 105.02C423.455 105.078 424.924 102.891 426.067 102.927C427.547 102.975 428.191 103.96 429.035 105.035C430.874 107.37 429.521 108.103 432.725 108.647C435.037 109.04 436.468 107.36 438.446 107.393C440.062 105.562 442.457 101.738 445.348 102.868C447.306 103.632 448.006 107.732 448.426 109.444C450.015 115.934 449.895 123.562 449.954 130.218C446.235 127.608 445.753 125.855 444.591 121.647C443.836 118.913 442.012 114.895 440.024 119.002C439.459 120.168 439.943 121.955 439.57 123.236C439.137 124.721 438.1 125.453 437.938 127.073C437.547 131.004 440.767 132.351 443.545 134.265C440.952 137.059 433.494 134.95 435.483 140.916C437.586 147.219 445.664 143.729 449.694 142.147C453.129 155.169 437.867 161.443 428.567 165.004C423.105 167.095 420.969 168.26 420.218 174.636C419.575 180.101 420.31 185.697 422.315 190.802C423.118 192.848 423.887 195.644 424.983 197.538C425.912 199.142 427.762 199.254 428.386 200.149C430.684 203.45 429.029 210.613 428.76 214.575C428.025 225.408 424.65 235.274 423.2 245.846C422.456 251.253 420.228 256.315 419.272 261.659C418.397 266.562 418.051 271.191 413.919 274.697C405.616 281.742 399.194 271.338 396.318 264.499C392.22 254.758 391.811 241.956 392.487 231.569C393.223 220.277 398.388 209.429 398.661 198.222C398.953 186.236 397.143 174.856 394.145 163.268C392.834 158.203 390.926 153.669 389.308 148.772C387.986 144.768 390.175 141.152 387.23 137.514ZM408.813 18.9389C408.814 18.9479 408.814 18.9561 408.816 18.9652C408.763 18.9062 408.71 18.85 408.653 18.7811C408.713 18.8527 408.765 18.9017 408.813 18.9389ZM409.061 17.8162C408.937 16.9701 408.666 15.9054 408.48 15.4266C408.93 15.7032 409.44 15.9354 409.458 16.2255C409.506 17.058 409.267 17.4498 409.061 17.8162ZM421.387 19.9536C421.3 20.0026 421.217 20.0561 421.13 20.1033C420.924 20.1033 420.752 20.0597 420.598 19.9917C420.657 20.0044 420.722 20.0144 420.796 20.0198C420.996 20.0343 421.193 20.0044 421.387 19.9536ZM427.83 17.8307C426.676 17.8216 425.46 17.7137 424.112 18.2986C424.326 18.1698 424.539 18.0547 424.756 17.9776C425.36 17.7636 426.637 17.7872 427.83 17.8307ZM362.479 334.577C362.727 329.155 362.723 327.528 366.984 324.032C370.536 321.117 373.972 318.058 377.561 315.187C385.507 308.828 393.997 302.096 403.032 297.347C408.094 294.688 421.905 289.327 418.415 299.828C415.121 309.737 408.765 318.539 403.292 327.343C397.714 336.317 392.134 345.298 386.339 354.134C383.818 357.977 381.158 361.747 378.746 365.658C376.373 369.509 376.128 372.105 371.261 370.511C367.724 369.352 363.728 367.94 360.391 366.433C357.461 365.109 357.636 364.3 357.555 360.856C359.37 351.954 362.059 343.79 362.479 334.577ZM385.153 226.082C383.921 231.043 375.086 231.633 370.319 232.595C369.5 232.76 365.348 234.103 364.573 233.643C363.044 232.733 363.796 230.104 363.145 228.831C359.576 221.862 359.524 230.771 358.507 232.869C355.725 238.617 351.463 227.11 349.901 224.292C348.698 222.124 347.409 221.021 348.654 219.201C349.691 217.686 355.458 216.645 357.229 215.992C363.688 213.606 370.13 211.176 376.572 208.744C379.344 207.696 387.884 202.213 387.79 207.483C386.869 213.548 386.626 220.149 385.153 226.082ZM380.324 285.314C377.606 286.159 370.226 289.545 367.477 287.948C365.157 286.6 366.76 281.875 367.02 279.415C367.513 274.779 367.441 269.735 367.177 265.085C366.79 258.217 366.218 257.674 372.996 255.827C375.614 255.112 383.61 251.245 385.555 253.426C386.463 254.444 386.079 257.682 386.279 258.917C386.712 261.587 387.457 264.198 388.432 266.72C390.119 271.079 392.58 274.993 395.156 278.869C390.537 281.711 385.488 283.708 380.324 285.314ZM364.979 236.747C366.153 235.06 371.993 234.82 373.924 234.412C377.336 233.69 380.75 232.976 384.164 232.255C384.347 236.412 386.697 247.269 383.707 250.268C382.026 251.956 376.402 252.39 374.021 252.976C371.427 253.614 368.829 254.241 366.231 254.868C365.937 250.861 365.692 246.852 365.265 242.856C365.108 241.387 364.026 238.119 364.979 236.747ZM365.653 291.629C367.449 289.562 372.308 289.622 375.009 288.991C379.312 287.984 383.39 286.61 387.462 284.908C389.741 283.956 394.231 280.696 396.75 281.522C397.456 281.753 398.933 284.66 399.47 285.206C400.388 286.14 401.574 286.773 402.639 287.511C405.571 289.543 407.351 290.175 410.81 290.863C392.72 298.281 378.186 311.479 363.224 323.654C362.162 322.764 362.752 314.805 362.869 312.979C363.085 309.59 363.23 306.158 363.484 302.758C363.692 299.964 363.746 293.824 365.653 291.629ZM420.587 363.798C420.042 366.885 419.959 371.125 418.636 373.977C417.422 376.589 417.57 376.407 414.343 376.485C410.266 376.584 405.589 377.267 401.642 376.026C405.167 368.241 408.101 359.781 412.924 352.678C414.439 350.448 417.364 344.738 420.533 345.078C423.713 345.42 423.014 348.609 422.763 350.916C422.292 355.224 421.342 359.531 420.587 363.798ZM436.468 242.36C438.917 225.566 438.71 209.147 438.71 192.235C442.617 192.751 446.922 192.426 450.688 193.531C449.472 197.409 445.965 200.907 449.436 204.589C452.961 208.329 461.179 209.968 465.944 211.345C471.525 212.958 477.215 214.93 482.949 215.888C485.527 216.318 488.334 216.736 490.935 216.236C495.052 215.446 495.415 214.353 498.122 218.594C498.135 218.617 498.159 218.651 498.174 218.676C497.392 218.227 494.912 218.497 495.572 218.516C495.669 218.858 495.814 219.198 495.899 219.515C495.168 218.914 493.553 218.408 493.329 218.368C490.637 217.895 487.221 219.103 484.628 219.701C478.814 221.045 473.043 222.508 467.412 224.497C462.672 226.171 457.977 228.045 453.456 230.245C449.965 231.942 441.904 234.932 440.803 239.091C438.691 247.066 459.759 253.125 464.896 255.825C469.748 258.374 468.216 262.155 468.271 267.22C468.33 272.721 468.829 278.17 468.447 283.659C468.152 287.912 467.826 287.253 463.583 287.177C460.406 287.12 457.228 286.992 454.054 287.181C449.575 287.447 444.977 288.068 440.774 289.696C434.486 292.132 422.409 303.729 434.443 307.263C439.398 308.718 445.788 308.186 450.867 307.835C455.272 307.531 462.174 305.525 466.424 307.04C468.641 306.412 469.44 307.218 468.823 309.456C468.925 310.991 469.028 312.525 469.129 314.059C469.335 317.147 469.54 320.234 469.745 323.322C470.166 329.64 470.585 335.959 471.004 342.277C467.311 337.043 462.231 326.718 454.362 327.898C447.608 328.91 443.615 339.383 441.44 344.788C439.672 349.179 438.53 353.782 437.335 358.353C436.186 362.748 435.767 368.962 433.666 372.945C431.598 376.868 428.723 375.551 424.488 375.955C419.192 376.459 421.327 373.495 422.169 368.995C423.45 362.14 427.987 350.314 423.613 343.925C418.027 335.77 410.136 350.881 407.991 354.962C405.985 358.777 404.274 362.731 402.738 366.756C401.747 369.355 400.945 374.965 398.385 376.386C395.251 378.129 390.281 375.343 387.402 374.432C384.02 373.362 380.324 372.915 376.852 372.215C386.739 356.738 397.02 341.494 406.612 325.835C411.407 318.006 417.456 309.787 420.09 300.93C420.589 299.253 421.202 297.65 420.998 295.866C420.822 294.343 418.533 291.949 418.678 290.892C418.894 289.326 422.038 288.019 423.508 286.373C428.616 280.653 429.9 273.846 431.487 266.575C433.212 258.662 435.304 250.354 436.468 242.36ZM455.771 194.363C463.301 192.741 471.857 197.067 478.154 200.56C482.308 202.864 493.395 207.681 493.822 213.324C493.707 211.794 483.511 212.749 481.495 212.798C472.881 210.933 463.693 208.418 455.656 204.701C452.729 203.347 449.291 202.021 450.357 198.546C451.057 196.263 453.636 194.823 455.771 194.363ZM447.036 305.386C442.276 305.112 424.993 305.3 433.691 296.671C439.136 291.267 449.163 290.094 456.406 290.065C459 290.055 461.558 290.259 464.136 290.523C464.842 290.608 465.55 290.691 466.256 290.775C468.416 290.346 469.09 291.24 468.279 293.456C468.666 294.753 469.286 302.444 468.147 303.526C466.636 304.96 461.824 304.327 460.05 304.466C455.697 304.806 451.405 305.412 447.036 305.386ZM472.312 370.757C459.789 372.623 447.287 375.002 434.588 375.201C436.484 365.945 438.692 356.709 442.142 347.892C444.348 342.258 448.353 330.092 456.071 330.691C462.232 331.169 469.422 341.725 471.139 347.117C473.378 354.147 472.312 363.446 472.312 370.757ZM504.473 230.06C504.223 231.343 498.603 233.65 497.401 234.348C488.731 239.386 481.008 246.854 475.82 255.341C475.243 252.065 475.334 245.853 472.589 243.526C467.757 239.43 468.75 248.607 468.172 251.41C467.631 254.039 468.304 253.613 466.037 253.847C464.026 254.054 458.894 250.288 457.039 249.339C451.91 246.716 446.994 243.861 442.067 240.883C446.149 234.14 458.186 231.044 465.04 228.347C474.891 224.471 484.601 222.487 495.026 220.882C496.769 221.789 496.996 219.749 498.298 219.292C498.371 219.186 498.395 219.097 498.399 219.015C499.929 221.29 504.846 228.15 504.473 230.06ZM517.226 320.931C522.078 343.223 523.286 366.414 529.414 388.437C535.24 409.371 540.414 430.213 547.145 450.864C551.022 462.759 554.622 474.773 559.804 486.196C563.418 494.162 566.286 511.153 575.091 514.882C580.855 517.323 583.411 515.162 582.795 509.317C582.261 504.231 579.624 501.036 577.447 496.644C576.689 495.114 574.22 490.796 574.489 489.173C574.823 487.155 575.336 487.372 577.441 486.374C581.908 484.255 586.363 482.819 591.121 481.593C589.202 484.57 585.368 488.827 585.06 492.468C584.805 495.472 586.963 500.982 589.947 502.135C592.768 503.224 596.087 500.927 598.502 499.526C601.298 497.903 603.963 497.452 607.04 496.3C603.118 501.951 596.693 506.453 599.444 514.227C602.379 522.519 611.484 515.737 617.307 514.8C615.644 521.225 608.265 528.55 602.958 532.126C599.395 534.526 595.529 536.69 591.705 538.633C590.224 539.385 588.28 539.844 586.92 540.74C586.403 541.081 585.533 542.527 585.064 542.754C578.459 545.943 569.451 546.757 562.265 548.29C554.347 549.979 547.533 550.392 539.382 550C532.639 549.677 525.169 545.534 519.534 542.055C515.25 539.411 514.624 536.179 513.291 531.51C511.08 523.773 509.101 515.986 506.991 508.222C505.172 501.529 504.325 495.098 503.093 488.307C500.481 473.914 499.279 459.294 496.478 444.926C493.696 430.655 492.766 416.198 491.996 401.611C491.625 394.584 490.481 387.417 490.133 380.528C489.849 374.924 489.946 369.285 489.976 363.522C489.998 359.471 488.562 355.422 488.66 351.357C488.747 347.762 489.076 344.525 488.697 340.894C487.888 333.157 487.254 325.513 486.646 317.764C485.46 302.662 481.968 287.758 480.576 272.72C479.975 266.216 487.113 259.979 491.948 256.192C497.103 252.155 501.238 246.486 506.91 243.309C509.011 269.392 511.656 295.341 517.226 320.931ZM431.808 599.797C426.216 602.29 420.626 604.787 415.031 607.276C410.918 609.106 405.522 612.866 401.002 612.527C404.215 608.174 406.24 603.196 409.667 598.968C413.088 594.746 415.912 590.262 419.005 585.801C423.072 590.761 427.228 595.305 431.808 599.797ZM432.998 577.908C441.458 573.446 453.479 564.966 463.395 566.566C470.538 567.718 478.628 572.947 482.941 578.706C484.964 581.407 486.987 583.927 489.303 586.574C491.424 589 492.513 588.685 490.658 591.215C489.231 593.161 485.868 594.479 483.679 595.231C483.679 590.973 485.003 586.704 479.887 587.125C477.869 587.291 475.514 587.774 473.503 588.102C471.769 588.385 470.764 589.138 469.286 589.486C467.71 589.857 465.826 589.42 464.192 589.548C461.377 589.769 459.125 590.897 456.459 591.487C450.944 592.709 446.288 594.398 440.918 596.203C438.461 592.447 436.398 587.932 433.06 584.862C429.329 581.429 427.737 580.682 432.998 577.908ZM360.42 15.4846C361.232 15.3994 362.16 14.8943 362.787 13.8414C361.689 15.6842 361.042 15.7676 360.42 15.4846ZM335.06 18.4192C336.043 18.5979 337.015 18.8164 337.829 19.1982C338.63 19.5737 339.062 20.0017 339.49 20.3771C339.29 20.2901 339.074 20.1967 338.831 20.0951C337.774 19.6535 336.421 18.8563 335.06 18.4192ZM318.147 158.159C318.081 158.069 318.018 157.986 317.954 157.905C318.018 157.986 318.081 158.069 318.148 158.159H318.147ZM314.859 158.636C314.55 158.523 314.288 158.336 314.081 158.064C314.288 158.336 314.55 158.523 314.859 158.636C315.064 158.711 315.291 158.753 315.536 158.765C315.291 158.753 315.064 158.711 314.859 158.636ZM313.544 155.945C313.543 156.336 313.573 156.679 313.633 156.981C313.573 156.679 313.543 156.336 313.544 155.945ZM317.526 157.401C317.446 157.317 317.368 157.239 317.289 157.166C317.368 157.239 317.446 157.318 317.526 157.401ZM316.848 156.811C316.722 156.726 316.596 156.649 316.465 156.584C316.596 156.649 316.722 156.726 316.848 156.811ZM457.487 22.0902C457.669 22.1428 457.827 22.1655 457.973 22.1736C457.774 22.1936 457.614 22.1636 457.487 22.0902ZM461.839 25.0057C461.309 24.5151 460.996 24.0345 460.835 23.5529C460.917 23.6037 461.007 23.65 461.108 23.6899C461.266 23.5339 461.423 23.3779 461.58 23.221C461.362 23.6273 461.287 24.0191 461.455 24.3709C462.267 26.0686 463.257 23.4876 464.482 24.7645C463.565 24.6521 462.446 25.0057 461.839 25.0057C460.425 26.9446 459.012 28.8844 457.6 30.8232C459.513 31.7781 460.112 30.5992 461.18 32.3395C461.232 32.4238 461.278 32.6306 461.319 32.9035C460.875 31.6348 459.716 31.8788 457.6 30.8232C459.012 28.8844 460.425 26.9446 461.839 25.0057ZM465.5 29.2743C465.631 29.1764 465.71 29.0412 465.761 28.8626C465.794 28.7429 465.815 28.6041 465.829 28.4436C465.815 28.6041 465.794 28.7429 465.761 28.8626C465.71 29.0412 465.631 29.1764 465.5 29.2743C465.413 29.3396 465.302 29.3886 465.162 29.4221C465.302 29.3886 465.413 29.3396 465.5 29.2743ZM465.9 27.213C465.882 27.466 465.871 27.6937 465.862 27.8977C465.871 27.6937 465.882 27.466 465.9 27.213ZM463.81 32.3776C463.871 32.49 463.939 32.5916 464.01 32.6859C463.94 32.5889 463.87 32.49 463.81 32.3776ZM461.685 40.0079C459.665 38.926 461.419 37.5639 461.503 35.9016C461.51 35.7538 461.513 35.6286 461.517 35.4926C461.531 35.8944 461.534 36.2235 461.524 36.385C461.387 38.7337 459.72 39.3876 462.754 40.0994C462.961 40.1484 463.23 40.1738 463.535 40.1856C462.76 40.2418 462.084 40.2219 461.685 40.0079ZM493.009 57.463C492.883 56.5027 497.375 54.4069 497.954 54.1494C497.243 54.4659 492.889 56.5525 493.009 57.463ZM498.118 48.9585C498.088 48.9458 498.055 48.9422 498.025 48.9286C498.031 48.8579 498.024 48.7917 498.024 48.7227C498.045 48.8098 498.073 48.8905 498.118 48.9585ZM500.51 56.7149C500.534 56.6106 500.582 56.3322 500.635 56.0003C500.714 56.4102 500.802 56.7947 500.885 57.1302C500.786 56.9996 500.669 56.8627 500.51 56.7149ZM497.02 56.6559C497.016 55.0281 497.528 55.3754 497.845 55.4244C497.555 55.8606 497.018 55.9422 497.02 56.6559ZM492.28 60.2308C492.752 60.1383 493.149 60.4094 493.516 60.7223C492.718 60.511 492.062 60.2725 492.28 60.2308ZM488.426 69.5287C488.352 69.5541 488.285 69.5705 488.216 69.5904C488.285 69.5705 488.352 69.5541 488.426 69.5287ZM488.815 69.3891C488.762 69.4099 488.717 69.4245 488.667 69.4426C488.717 69.4245 488.762 69.4099 488.815 69.3891ZM488.086 69.6276C487.988 69.6521 487.897 69.6693 487.809 69.6811C487.897 69.6693 487.988 69.6521 488.086 69.6276ZM491.049 125.896C491.248 125.561 491.677 125.45 492.162 125.397C491.551 125.63 491.082 126.129 490.971 126.853C490.85 126.585 490.819 126.282 491.049 125.896ZM494.582 115.488C494.549 115.478 494.514 115.465 494.481 115.462C493.492 115.385 493.063 116.025 492.956 117.004C493.022 116.15 493.308 115.454 494.046 115.227C494.008 115.15 493.975 115.078 493.938 115.003C494.127 115.174 494.344 115.336 494.582 115.488ZM493.41 120.758C493.389 120.642 493.364 120.515 493.338 120.383C493.449 120.849 493.575 121.312 493.704 121.757C493.576 121.399 493.465 121.057 493.41 120.758ZM494.271 104.554C494.19 104.591 494.099 104.624 494.004 104.652C494.099 104.624 494.19 104.592 494.271 104.554ZM494.512 104.411C494.457 104.453 494.392 104.489 494.325 104.523C494.392 104.489 494.455 104.452 494.512 104.411ZM493.957 104.668C493.844 104.698 493.719 104.724 493.58 104.741C493.718 104.724 493.843 104.699 493.957 104.668ZM494.974 92.8386C494.986 93.2757 494.988 93.7119 495.001 94.1245C494.931 93.7191 494.924 93.3192 494.974 92.8386ZM691.014 676.249C688.313 673.821 679.263 673.659 675.67 672.977C683.444 665.539 689.288 646.736 674.436 644.322C671.148 643.787 670.218 645.054 669.465 641.331C669.004 639.049 669.944 636.947 668.812 634.674C666.124 629.278 655.912 629.88 650.81 629.104C652.029 624.819 655.019 617.164 650.515 613.685C646.961 610.941 639.566 614.604 635.79 615.779C625.588 618.954 615.226 622.578 606.621 628.973C602.765 623.768 598.732 618.631 595.498 613.002C592.412 607.632 590.501 601.695 587.6 596.228C584.691 590.745 581.604 584.281 577.542 579.569C574.104 575.579 569.387 575.185 564.85 573.28C553.339 568.45 543.365 568.727 531.337 570.513C519.315 572.298 508.893 579.329 498.71 585.464C494.714 571.987 485.47 557.344 471.139 553.188C464.708 551.322 457.941 553.123 452.062 556.055C444.776 559.69 439.048 565.87 431.923 569.311C440.047 555.403 450.303 542.321 459.231 529.187C464.128 521.983 470.315 515.552 475.098 508.212C479.974 500.729 483.566 492.41 487.103 484.242C490.091 491.865 490.597 499.885 493.341 507.534C495.86 514.556 497.585 521.76 500.45 528.666C503.441 535.875 506.083 542.988 510.125 549.697C512.431 553.524 518.114 565.445 522.304 557.798C531.626 564.095 540.625 567.897 552.285 567.621C557.623 567.495 563.568 567.327 568.677 566.131C573.867 564.918 578.825 563.284 583.982 562.12C588.062 561.2 591.791 558.709 595.502 556.864C599.771 554.742 604 550.927 607.296 547.581C611.377 543.438 615.594 539.45 619.696 535.333C623.756 531.259 623.463 527.101 625.635 522.038C627.902 516.756 628.874 512.087 625.875 506.756C623.679 502.851 619.793 503.389 618.884 499.434C618.021 495.682 618.86 492.146 616.503 488.703C614.714 486.091 608.278 484.345 608.257 481.678C608.239 479.474 610.529 477.524 610.438 474.88C610.356 472.519 609.201 468.723 607.932 466.725C605.548 462.969 601.916 462.841 597.821 463.99C587.927 466.763 578.226 473.894 571.422 481.384C562.092 455.831 554.745 429.718 547.921 403.582C544.906 392.038 542.545 380.341 540.628 368.569C538.731 356.914 535.856 345.173 534.574 333.458C533.804 326.431 531.642 319.856 530.631 312.915C529.794 307.169 529.237 301.377 528.413 295.628C526.592 282.888 524.062 270.344 522.094 257.635C521.007 250.612 518.552 244.467 516.663 237.703C515.043 231.903 514.078 226.944 511.37 221.464C506.203 211.014 500.891 198.213 490.855 191.572C481.929 185.665 473.272 180.729 462.394 179.52C456.012 178.809 450.871 180.309 444.631 180.998C439.106 181.608 434.375 184.661 428.986 185.761C428.986 180.64 428.486 180.502 433.16 178.68C435.852 177.631 438.478 176.478 441.22 175.566C444.11 174.604 446.298 173.666 448.763 171.899C451.671 169.813 449.837 170.475 453.322 171.196C458.816 172.334 457.197 171.014 460.811 168.277C462.913 166.684 465.059 167.656 467.52 167.974C469.816 168.271 473.594 169.286 475.346 167.219C476.679 165.647 475.226 162.95 476.208 161.242C477.758 158.545 482.201 158.668 484.572 156.856C487.168 154.875 487.403 152.641 486.84 149.594C486.451 147.485 483.126 142.799 483.313 140.984C483.438 139.776 484.075 139.422 484.897 139.323C491.394 139.651 491.081 138.672 489.496 132.914C489.403 133.767 489.346 134.492 489.282 135.117C489.264 134.223 489.272 133.388 489.496 132.914C489.665 132.557 490.273 132.327 490.823 132.039C490.678 132.183 490.526 132.33 490.347 132.495C490.625 133.719 490.706 136.917 491.881 137.787C492.722 138.41 495.671 138.346 496.266 137.305C497.511 135.131 493.231 133.897 493.064 132.283C497.978 131.872 496.302 129.476 493.732 127.032C493.63 126.361 494.02 126.043 494.903 126.079C494.464 125.621 493.921 125.36 493.379 125.276C493.762 125.212 494.095 125.1 494.27 124.828C494.423 124.589 494.434 124.258 494.377 123.888C494.472 124.173 494.556 124.418 494.617 124.607C498.857 126.318 496.678 117.237 494.919 115.689C495.055 113.169 495.19 110.65 495.323 108.131C494.114 108.929 493.193 110.173 492.878 111.472C492.921 110.273 493.62 109.255 495.323 108.131C492.598 106.931 492.33 106.785 495.256 106.529C497.682 108.741 497.343 106.905 498.847 105.554C498.756 105.634 501.12 103.064 500.962 103.457C502.085 100.678 500.846 94.8146 496.32 96.7245C498.778 98.9245 496.311 99.3299 495.452 101.222C495.423 101.285 495.401 101.352 495.377 101.418C495.422 101.192 495.484 100.973 495.577 100.772C497.094 97.5134 497.452 100.015 495.784 96.3082C495.782 96.3055 495.781 96.3028 495.779 96.2991C496.221 96.5222 496.911 96.4751 498.006 96.0135C499.372 94.3458 499.786 95.0277 500.518 92.8794C501.159 90.9995 500.862 89.7172 499.581 89.018C499.728 89.0561 499.874 89.0987 500.021 89.1359C500.587 87.6904 499.801 86.3129 498.491 85.6481C497.963 86.5133 497.434 87.3793 496.907 88.2454C497.146 88.3224 497.386 88.3914 497.627 88.4639C497.624 88.4639 497.621 88.4639 497.619 88.463C495.941 88.2689 495.262 88.57 495.01 89.3445C494.926 88.9971 494.903 88.6553 495.095 88.3451C495.3 88.0141 496.749 88.5047 496.907 88.2454C499.507 83.985 496.761 80.4382 492.578 78.2681C490.989 77.4438 487.857 77.4157 487.296 75.4868C486.899 74.1238 488.874 70.8256 489.253 69.2086C492.172 67.8701 486.783 67.0866 486.747 67.0811C486.585 68.9883 486.69 69.8325 487.791 69.6847C486.681 69.8353 486.585 68.9819 486.747 67.0811C488.331 67.3242 493.005 66.888 495.296 65.33C499.089 65.4379 501.041 66.0954 503.342 62.8062C501.094 61.8731 498.446 62.3755 496.428 60.9426C496.521 61.3734 496.598 61.7642 496.646 62.1252C496.471 61.5919 496.091 61.1331 495.581 60.6978C495.911 60.9807 495.74 61.0714 495.349 61.0587C495.424 60.9581 495.501 60.842 495.581 60.6978C495.718 59.1017 496.891 59.7519 498.079 59.8517C498.048 59.3384 497.845 58.9067 497.625 58.4787C497.843 58.8895 498.046 59.3103 498.079 59.8517C498.832 59.3729 499.585 58.894 500.338 58.4143C500.748 58.2955 500.993 58.1296 501.089 57.921C501.09 57.9246 501.091 57.9292 501.092 57.9328C504.69 59.0065 503.595 51.3835 501.939 51.4225C501.495 51.4333 501.174 51.5966 500.936 51.855C500.987 51.1522 501.108 50.4086 501.396 49.3675H501.393H501.396C501.565 48.9195 501.732 48.4715 501.902 48.0236C500.994 48.0816 498.059 46.3286 498.006 48.4199C497.95 48.0426 497.801 47.6907 497.544 47.3706C497.807 45.0572 496.445 45.254 494.335 44.6074C493.551 44.3671 492.687 42.8663 491.804 43.4965C490.477 44.4433 491.276 45.3347 492.128 46.0094C492.003 46.7957 491.627 47.4241 490.999 47.8939C490.904 47.8041 490.812 47.7352 490.721 47.6653C491.308 47.3216 491.803 46.7748 492.128 46.0094C489.415 43.8629 488.27 45.2676 486.183 46.9943C487.014 47.6862 487.977 48.0589 488.9 48.097C488.853 48.1986 488.807 48.3011 488.765 48.4226C487.719 48.292 486.858 47.8159 486.183 46.9943C488.4 45.1597 488.2 44.0352 485.504 42.947C484.592 42.5797 484.016 43.3977 482.888 42.9651C482.329 42.7502 481.925 41.7744 481.379 41.4516C477.299 39.0366 472.398 40.4114 468.053 39.8392C468.597 39.7694 469.084 39.7013 469.454 39.6524C469.023 38.1542 467.857 37.5058 466.63 37.0497C466.632 36.1963 466.632 35.3421 466.632 34.4887C466.458 34.4497 466.291 34.4316 466.129 34.4271C466.414 34.2022 466.583 33.8965 466.543 33.376C465.494 33.7551 464.605 33.4758 464.031 32.7167C465.172 34.174 467.395 33.4114 468.073 31.5423C468.784 29.5835 467.26 28.2677 465.934 26.814C465.966 25.4174 465.372 24.915 464.605 24.7808C465.989 22.0639 466.299 23.4115 464.814 20.0135C464.692 17.7237 462.749 18.5553 461.438 20.0262C461.576 19.6888 461.718 19.3424 461.852 18.9815C460.821 18.9117 459.792 18.8418 458.761 18.7702C459.023 19.6063 459.601 21.0954 458.841 21.8054C459.346 21.079 458.987 19.492 458.761 18.7702C457.498 18.0665 456.237 17.3627 454.974 16.6572C455.08 16.883 455.371 17.7327 455.731 18.6949C454.76 17.3428 453.968 16.5049 452.644 15.1128C451.999 14.4336 449.47 11.1734 448.769 10.9703C444.483 9.72792 441.241 18.11 436.012 16.9628C432.929 16.2863 434.368 15.4883 431.456 16.0541C429.86 13.982 419.449 17.2403 419.05 19.2118C419.245 19.1592 419.394 19.1375 419.515 19.1338C418.341 19.5546 417.32 20.2021 416.184 20.6401C413.334 21.7392 415.03 22.0258 411.795 20.1758C410.691 19.5446 410.283 19.7423 409.854 19.6843C411.247 19.0586 411.918 14.7274 411.938 13.183C411.988 9.49304 411.5 10.1405 412.94 7.49433C411.608 7.47347 410.671 7.36012 409.972 7.67661C410.172 7.04906 410.315 6.43331 410.311 5.8375C411.032 3.88595 410.397 1.58707 408.168 1.04386C404.797 0.221343 404.135 5.06124 406.579 5.85383C404.242 5.0957 405.179 2.03415 401.997 1.61972C403.164 1.55986 403.889 1.78023 404.976 3.11694C405.337 2.39145 405.696 1.66687 406.056 0.941387C403.523 0.676585 402.352 0.46166 400.307 1.65146C398.305 2.00876 396.894 3.45882 395.383 4.87442C391.268 8.72947 387.573 12.492 383.785 16.6744C381.839 12.6761 379.69 9.7651 376.532 14.2395C373.68 18.2778 371.372 23.8595 369.89 28.5552C366.928 27.1958 368.177 26.7523 366.934 24.5505C368.226 26.6952 366.912 27.1885 369.89 28.5552C370.185 27.6184 370.482 26.6807 370.778 25.7439C368.184 22.7885 368.294 19.8521 365.485 16.7007C365.175 17.711 366.069 19.1502 366.226 20.0606C366.4 21.07 365.281 21.771 365.535 22.8565C366.584 22.4729 366.828 22.7041 366.861 23.124C366.825 22.705 366.578 22.4756 365.535 22.8565C365.119 21.0836 366.153 20.1413 365.576 18.1617C365.343 17.3618 365.004 16.7769 364.595 16.211C366.382 13.2229 360.603 11.1526 359.258 12.9309C359.089 13.1549 358.975 13.3635 358.885 13.5648C356.629 12.5501 355.932 14.7093 354.88 16.3307C354.63 16.8377 354.379 17.3455 354.129 17.8534C352.801 18.9443 351.568 21.2269 350.568 22.7204C348.429 25.9135 347.533 30.5865 344.914 33.2472C345.002 31.5333 345.937 27.7336 342.859 29.2661C343.875 28.7601 344.021 28.1453 343.798 27.4325C343.99 27.5404 344.197 27.6383 344.437 27.7181C344.87 27.7608 345.304 27.8025 345.737 27.8442C345.683 25.4174 344.091 23.8223 342.212 22.5318C342.212 23.1657 342.192 23.8177 342.233 24.4426C342.223 24.4199 342.212 24.3981 342.202 24.3755C341.378 22.3994 341.727 21.8172 341.012 21.2114C341.293 21.2785 341.615 21.3266 342.01 21.3457C339.71 17.458 336.654 16.8368 332.428 17.9322C332.715 18.0003 333.017 18.0583 333.324 18.1154C332.846 18.1163 332.382 18.2016 331.949 18.4129C330.308 19.2118 327.88 23.8041 326.741 25.3966C322.733 31.001 320.866 37.8677 318.768 44.3453C318.179 46.1681 317.284 50.4403 315.005 51.0516C312.357 51.7625 309.551 47.4477 307.22 46.0058C299.76 41.3908 296.05 49.6768 294.901 56.2506C293.187 59.1588 293.582 61.4006 296.055 62.7781C295.363 61.7778 295.044 60.7123 294.913 59.6132C295.241 61.4813 296.799 62.1288 297.08 62.9286C297.234 63.3676 297.449 66.0301 297.444 66.5651C298.718 67.5164 298.814 68.2192 297.731 68.6736C297.069 69.1261 296.449 69.6321 295.87 70.1908C294.083 72.0752 294.1 74.6879 292.464 76.5206C290.616 78.5937 288.918 77.6778 288.046 81.0857C286.551 86.9241 290.234 95.7396 296.862 96.2982C296.075 98.5971 295.057 100.929 294.47 103.286C293.69 106.423 293.744 106.741 295.223 109.741C284.198 108.103 285.06 119.773 291.343 125.505C292.832 126.864 294.462 127.71 296.384 128.312C297.774 128.748 301.971 128.505 302.971 129.824C305.077 132.604 300.375 136.219 299.959 139.321C299.917 139.639 299.899 140.184 299.913 140.817C298.177 142.941 298.263 143.117 300.743 145.104C302.102 146.855 306.301 146.436 307.578 148.11C309.541 150.686 305.162 154.833 307.357 157.843C309.103 160.235 310.924 158.744 313.718 159.758C315.072 160.376 316.424 160.995 317.775 161.617C318.408 161.177 319.1 160.901 319.853 160.789C321.431 161.584 319.924 162.983 321.914 163.451C322.948 163.777 325.337 165.016 326.381 164.374C324.9 165.285 323.905 167.537 323.055 170.013C322.246 171.337 321.499 172.794 321.796 173.888C321.298 175.404 320.787 176.787 320.178 177.75C323.618 178.274 323.213 181.515 325.595 183.294C328.812 186.048 329.348 183.492 328.587 182.149C328.909 182.312 329.24 182.524 329.581 182.766C329.646 182.811 328.954 184.447 329.633 184.829C330.583 185.365 330.582 184.827 331.57 184.816C332.5 184.806 333.849 183.41 334.985 183.293C335.59 183.231 337.378 184.058 337.748 183.813C338.778 183.13 338.698 182.381 338.298 181.475L338.758 182.395C339.867 185.291 340.425 184.639 342.106 183.809C341.652 184.033 343.424 182.711 343.788 182.817C342.96 180.522 339.676 180.763 337.654 180.189C338.935 180.552 341.016 180.566 342.195 181.074C344.169 181.924 343.545 182.788 345.882 183.053C346.865 183.164 350.878 182.074 351.585 181.36C351.653 181.292 351.7 181.209 351.736 181.117C352.1 180.536 352.465 179.954 352.827 179.372C354.31 179.544 352.704 181.824 355.032 180.917C356.771 180.238 355.924 179.294 355.371 178.264C355.19 177.926 354.986 177.686 354.772 177.513C357.174 178.088 360.03 181.321 363.31 180.416C365.16 179.905 365.263 178.643 366.619 177.462C368.431 175.885 368.992 176.128 371.187 175.365C372.515 174.903 373.93 173.883 375.268 173.645C377.446 173.258 376.845 173.498 378.65 174.416C379.729 174.964 380.343 175.994 381.705 176.193C382.949 176.375 384.903 174.944 385.91 175.337C388.65 176.408 387.953 180.254 388.108 182.79C374.237 178.375 358.024 185.431 347.815 195.121C345.047 197.748 343.236 200.863 340.776 203.72C338.107 206.82 335.59 208.228 335.215 212.644C334.892 216.452 336.609 218.738 335.253 222.397C333.953 225.903 332.534 229.041 331.583 232.697C327.04 250.155 326.899 268.284 323.532 285.983C320.417 302.36 315.968 316.949 308.638 331.961C305.239 338.92 302.39 343.181 294.936 346.116C288.906 348.49 284.492 345.378 281.544 339.964C273.613 325.394 272.485 310.41 272.582 294.158C272.627 286.351 273.518 278.543 274.27 270.781C275.05 262.736 274.465 255.22 273.906 247.187C272.783 231.082 269.108 217.268 263.579 202.121C260.958 194.937 258.746 187.933 252.432 183.259C248.895 180.642 245.343 177.368 241.197 175.105C237.88 173.294 235.905 171.658 232.122 170.847C229.635 170.314 227.368 169.491 224.965 168.717C219.297 166.894 212.74 166.33 206.794 166.35C192.91 166.397 177.673 171.071 165.176 177.065C158.953 180.049 152.196 184.493 148.097 190.154C146.406 192.491 145.254 195.082 144.105 197.711C142.73 200.853 143.162 201.428 140.25 201.319C138.427 201.25 136.387 199.562 134.298 199.472C132.011 199.374 130.337 200.17 128.208 200.761C125.506 201.51 122.965 202.181 120.563 203.734C114.733 207.498 109.802 213.498 105.347 218.732C97.1908 228.313 89.8122 239.05 82.1819 248.809C74.6679 258.417 65.5399 266.944 53.8688 271.3C49.4165 272.962 44.4865 273.298 39.9407 274.642C37.9461 275.231 35.5302 276.796 33.4403 276.769C30.156 276.727 30.4085 275.119 29.2714 272.512C27.9199 269.416 25.9644 267.006 23.5212 264.693C12.6812 254.43 -0.800088 269.637 0.0364169 281.35C0.525967 288.195 5.6558 292.709 5.47506 299.426C5.30522 305.71 5.67942 312.085 7.92099 318.049C10.4369 324.738 16.6239 331.676 22.0798 336.226C27.1343 340.442 33.4648 341.337 39.8317 342.041C42.7499 342.363 45.778 343.231 48.6 343.18C51.0178 343.135 53.2167 342.157 55.6853 342.257C59.8724 342.425 62.1167 342.398 66.0404 340.912C68.9504 339.81 71.5762 339.198 74.7451 339.27C74.7451 345.948 75.1683 352.479 75.7424 359.134C75.8177 360.013 76.4254 362.296 76.0212 363.079C75.5226 364.046 74.9304 363.408 74.3091 364.104C72.8268 365.762 71.7524 366.577 70.6425 368.733C67.598 374.645 66.6661 381.258 67.8523 387.85C68.7833 393.018 71.8223 395.147 71.1039 400.638C70.2592 407.089 68.6879 413.674 68.3846 420.167C68.2392 423.264 68.2029 425.603 67.5471 428.608C67.1684 430.351 65.8941 433.493 65.9968 435.256C66.0612 436.345 67.2156 436.827 67.2175 437.825C67.2202 438.695 66.2147 438.579 66.1457 439.325C65.935 441.574 65.8124 443.611 65.8605 445.872C65.9241 448.931 65.6253 451.971 65.7397 455.03C65.8269 457.359 65.2847 462.875 67.8996 461.966C67.202 463.612 67.0167 465.198 66.9477 466.778C66.9123 466.625 66.8968 466.468 66.9105 466.308C67.0703 464.485 67.1239 463.796 67.8996 461.966L66.4073 462.485C65.4945 464.84 66.6153 467.147 66.866 469.491C66.8578 469.725 66.8496 469.959 66.8351 470.196C66.6244 473.6 66.8814 476.933 67.1357 480.329C67.7161 488.084 67.9895 496.728 70.0866 503.696C72.3854 511.334 71.6507 520.936 72.5371 529.348C73.5516 538.976 75.1965 548.449 76.4217 558.041C77.5162 566.606 78.0439 575.899 79.9212 584.24C81.4607 591.072 82.7632 597.725 83.5888 604.905C84.7314 614.862 88.3653 622.447 92.3644 631.494C94.0555 635.323 94.1718 635.262 91.0674 638.059C89.7667 639.23 88.6641 640.601 87.339 641.745C84.686 644.039 81.7877 645.374 78.3036 645.787C69.727 646.804 61.0622 649.852 56.2439 657.246C51.5873 664.394 54.6045 672.77 58.0895 680.052C53.4901 680.443 41.0515 680.161 43.9615 688.54C45.9506 694.268 56.5572 692.35 61.242 692.412C68.0876 692.504 74.9812 692.168 81.7668 692.075C84.8558 692.032 85.171 691.712 88.1791 692.89C91.0138 693.999 93.1773 694.122 96.2444 693.919C99.5105 693.705 102.775 694.186 105.94 693.716C109.93 693.125 112.412 692.626 116.42 693.335C119.318 693.848 121.64 693.596 124.531 693.215C127.736 692.79 130.77 693.046 134.076 692.957C141.798 692.75 149.461 692.895 157.188 692.982C164.7 693.065 172.216 692.039 179.676 692.376C192.685 692.963 205.926 692.428 218.994 692.732C225.023 692.873 229.679 696.381 235.722 696.02C241.863 695.653 248.088 695.597 254.181 694.739C264.673 693.261 274.783 691.17 285.443 690.625C292.18 690.281 298.102 693.181 304.441 695.003C306.738 695.662 308.804 695.353 310.951 695.843C312.977 696.304 315.055 697.627 317.195 698.176C322.261 699.475 327.103 699.969 331.556 700.089C332.132 701.155 332.797 701.286 333.551 700.48C333.857 700.306 334.163 700.132 334.469 699.959C335.889 699.77 336.902 699.13 338.392 699.036C340.688 698.889 343.039 699.202 345.169 698.997C349.632 698.567 353.821 698.285 358.755 698.792C361.682 699.093 364.243 698.668 367.124 698.721C367.091 698.72 371.077 699.498 371.167 699.463C371.52 699.326 372.078 698.342 372.307 698.299C372.225 697.356 372.508 696.931 373.159 697.023C373.681 696.909 374.026 697.182 374.192 697.841C374.036 697.86 375.434 698.566 375.533 698.581C375.613 698.594 379.214 698.168 379.467 698.073C380.5 697.686 380.939 696.562 381.763 696.393C382.739 696.194 383.321 697.27 384.166 697.225C386.031 697.124 385.811 696.293 387.244 696.035C392.274 695.128 398.434 696.307 403.63 696.315C408.809 696.324 413.958 695.85 418.944 695.631C425.075 695.361 431.08 696.525 437.257 695.699C443.131 694.912 449.009 694.57 454.927 694.321C467.296 693.8 479.99 694.351 492.244 692.896C505.005 691.383 517.979 692.895 530.759 692.668C544.234 692.428 557.782 692.305 571.252 691.753C584.659 691.203 598.011 689.607 611.365 689.286C614.763 689.205 618.099 688.395 621.483 688.149C624.582 687.924 627.629 688.417 630.753 688.144C636.442 687.646 641.616 688.027 647.334 687.94C653.728 687.842 659.94 686.867 666.3 686.475C672.729 686.079 679.097 686.986 685.473 685.718C688.959 685.024 695.461 680.249 691.014 676.249Z" fill="#1F1235"/>
<path fill-rule="evenodd" clip-rule="evenodd" d="M438.56 107.444C438.551 107.444 438.543 107.445 438.536 107.444C438.503 107.481 438.47 107.521 438.439 107.556L438.56 107.444Z" fill="#1F1235"/>
<path fill-rule="evenodd" clip-rule="evenodd" d="M491.817 78C492.625 75.192 490.579 73.1808 489.209 71C488.402 75.948 485.924 75.7338 491.817 78Z" fill="#1F1235"/>
<path fill-rule="evenodd" clip-rule="evenodd" d="M343.463 183.416C343.484 183.473 343.511 183.523 343.528 183.583C343.551 183.484 343.524 183.433 343.463 183.416Z" fill="#1F1235"/>
<path fill-rule="evenodd" clip-rule="evenodd" d="M321.139 179.711C321.323 180.124 321.725 182.984 322.016 182.998C324.607 183.121 321.449 178.283 319.793 178C317.398 179.546 321.196 179.838 321.139 179.711Z" fill="#1F1235"/>
<path fill-rule="evenodd" clip-rule="evenodd" d="M321 163C320.829 160.815 320.094 160.538 318 161.6C318.626 162.974 319.371 162.777 321 163Z" fill="#1F1235"/>
<path fill-rule="evenodd" clip-rule="evenodd" d="M292 109.501C293 109.668 294.001 109.834 295 110C294.413 108.668 293.825 107.333 293.238 106C292.825 107.168 292.413 108.334 292 109.501Z" fill="#1F1235"/>
<path fill-rule="evenodd" clip-rule="evenodd" d="M312.527 548.494C312.528 548.492 312.528 548.49 312.53 548.488C312.457 548.516 312.446 548.522 312.527 548.494Z" fill="#1F1235"/>
<path fill-rule="evenodd" clip-rule="evenodd" d="M108.512 276.148C110.63 272.607 114.646 268.232 119.218 269.704C123.489 271.08 124.671 276.679 126.512 280.201C130.092 287.048 131.207 279.696 132 275.54C131.353 267.217 128.115 253.67 117.161 255.105C108.829 256.199 101.634 269.583 103.221 277.497C104.554 284.149 106.804 279.005 108.512 276.148Z" fill="#1F1235"/>
<path fill-rule="evenodd" clip-rule="evenodd" d="M424.267 119.287C420.176 117.827 420.18 122.247 420.022 125.57C419.877 128.623 420.35 135.785 424.204 136.875C428.043 137.963 428.405 131.638 429 129.081C428.105 126.046 427.61 120.48 424.267 119.287Z" fill="#1F1235"/>
<path fill-rule="evenodd" clip-rule="evenodd" d="M429 112.654C425.997 110 423.992 109.187 420.157 110.901C418.183 111.783 415.363 113.702 415.054 116.122C414.089 123.654 426.354 114.199 429 112.654Z" fill="#1F1235"/>
<path fill-rule="evenodd" clip-rule="evenodd" d="M429.626 157.773C436.624 159.581 437.071 150.016 429.289 150C424.082 149.99 425.718 156.763 429.626 157.773Z" fill="#1F1235"/>
<path fill-rule="evenodd" clip-rule="evenodd" d="M376.132 128.039C373.52 128.42 372.597 130.059 373.157 132.675C373.804 135.693 375.44 135.718 378.369 136C385.428 136.022 380.821 127.354 376.132 128.039Z" fill="#1F1235"/>
<path fill-rule="evenodd" clip-rule="evenodd" d="M438.095 111.841C438.741 113.633 442.249 114.442 444.083 113.759C446.264 112.946 446.717 110.971 444.749 109.157C443.063 107.604 440.739 108.014 438.629 108.158C438.699 108.836 437.693 110.727 438.095 111.841Z" fill="#1F1235"/>
<path fill-rule="evenodd" clip-rule="evenodd" d="M218.561 316C221.898 315.995 218.749 310.351 216 310C216.058 311.746 215.943 316.005 218.561 316Z" fill="#1F1235"/>
</svg>
