<svg width="40" height="40" viewBox="0 0 40 40" fill="none" xmlns="http://www.w3.org/2000/svg">
<path d="M30.7446 10.276L25.7238 6.51036C25.4415 6.29865 25.0789 6.22537 24.7365 6.31099L19.9999 7.49513L15.2634 6.31099C14.921 6.22552 14.5584 6.29865 14.276 6.51036L9.2552 10.276C8.96012 10.4973 8.78645 10.8446 8.78645 11.2135V17.0772C8.78645 18.0602 9.16934 18.9849 9.86512 19.6814L11.2969 21.113V21.8827C11.2969 25.1341 13.9774 26.4455 15.1775 26.706C15.6626 28.9218 17.6396 30.5858 19.9999 30.5858C22.3596 30.5858 24.3369 28.9215 24.8223 26.7054C27.0385 26.2205 28.703 24.2435 28.703 21.884V21.113L30.1354 19.6809C30.8305 18.9849 31.2134 18.0602 31.2134 17.0772V11.2135C31.2134 10.8446 31.0397 10.4973 30.7446 10.276ZM19.9987 28.2421C18.9155 28.2421 17.9859 27.574 17.5988 26.6286C18.5457 26.3561 19.3769 25.8073 19.9986 25.0754C20.8484 26.0754 21.8408 26.4687 22.4007 26.6288C22.013 27.5742 21.083 28.2421 19.9987 28.2421ZM28.8697 17.0772C28.8697 17.4347 28.7303 17.7711 28.4777 18.0239L26.7025 19.7989C26.4827 20.0187 26.3592 20.3167 26.3592 20.6276V21.8841C26.3592 23.3135 25.1962 24.4765 23.7655 24.4765C22.3295 24.4765 21.1717 23.3144 21.1717 21.8828V21.7994H22.5102C23.1574 21.7994 23.6821 21.2748 23.6821 20.6276C23.6821 19.9804 23.1574 19.4557 22.5102 19.4557H17.4894C16.8422 19.4557 16.3175 19.9804 16.3175 20.6276C16.3175 21.2748 16.8422 21.7994 17.4894 21.7994H18.8281V21.8841C18.8281 23.3135 17.6651 24.4765 16.2343 24.4765C14.7985 24.4765 13.6406 23.3144 13.6406 21.8828V20.6276C13.6406 20.3167 13.5171 20.0187 13.2973 19.7989L11.5226 18.0245C11.2695 17.7712 11.1301 17.4348 11.1301 17.0773V11.7995L15.236 8.72012L19.7156 9.84004C19.9023 9.88668 20.0975 9.88668 20.2841 9.84004L24.7637 8.72012L28.8696 11.7995L28.8697 17.0772Z" fill="#C9BAE2"/>
<path d="M36.7367 14.0278C36.7337 14.0237 36.7306 14.0195 36.7274 14.0153C36.6501 13.9128 36.6604 13.7675 36.7517 13.6771L38.3977 12.0458C38.7866 11.6603 38.8566 11.0568 38.5664 10.5925L36.947 8.00106C35.4206 5.55888 33.2823 3.53006 30.7634 2.13405C28.2445 0.737888 25.3908 0 22.5103 0C22.3283 0 22.149 0.0423436 21.9862 0.123671L19.9999 1.11687L18.0136 0.123671C17.8509 0.0423436 17.6709 0 17.489 0C14.609 0 11.7553 0.737888 9.23637 2.13398C6.7174 3.53006 4.5792 5.55881 3.05272 8.00106L1.43328 10.5924C1.14304 11.0568 1.21312 11.6602 1.60203 12.0457L3.24827 13.6773C3.33936 13.7674 3.34967 13.9128 3.27233 14.0153C3.26921 14.0195 3.26608 14.0236 3.26303 14.0278C1.15875 16.8217 0 20.2858 0 23.7837V25.0207C0 25.4097 0.193124 25.7735 0.515467 25.9915C1.12757 26.4054 1.74218 26.0547 1.80343 26.0303C2.80929 25.6279 3.94569 25.7501 4.84311 26.3576C5.74037 26.965 6.27607 27.9748 6.27607 29.0587V29.8382C6.27607 32.7177 8.11122 35.2639 10.8427 36.1742C11.4248 36.3682 11.9456 36.0768 12.1885 35.7126L12.8341 34.7442C13.0671 34.3946 13.4567 34.1726 13.8762 34.1503C14.2971 34.1279 14.7073 34.3072 14.976 34.6295L19.0998 39.5783C19.3224 39.8455 19.6522 39.9999 20 39.9999C20.3478 39.9999 20.6776 39.8455 20.9002 39.5783L25.0237 34.6299C25.2927 34.3073 25.7043 34.1281 26.1239 34.1503C26.5433 34.1726 26.9329 34.3946 27.1657 34.7438L27.8115 35.7127C28.0519 36.0732 28.5739 36.3687 29.1573 36.1742C31.8887 35.264 33.7239 32.7178 33.7239 29.8383V29.0588C33.7239 27.9749 34.2596 26.9652 35.1569 26.3577C36.0544 25.7501 37.1908 25.6278 38.1976 26.0307C38.2635 26.0571 38.8743 26.4041 39.4845 25.9915C39.8069 25.7736 40 25.4099 40 25.0208V23.7838C39.9998 20.2858 38.8411 16.8217 36.7367 14.0278ZM33.8428 24.4169C32.3007 25.4608 31.38 27.1961 31.38 29.0588V29.8383C31.38 31.4103 30.5373 32.8294 29.2147 33.5921L29.1159 33.444C28.4746 32.4821 27.4025 31.8713 26.2482 31.8099C25.0933 31.7487 23.9633 32.2417 23.2232 33.1293L19.9999 36.9974L16.7763 33.1289C16.0778 32.291 15.0308 31.8046 13.9446 31.8046C13.4281 31.8046 11.8783 31.9524 10.8837 33.4441L10.7852 33.5919C9.46246 32.8292 8.61981 31.4101 8.61981 29.8381V29.0586C8.61981 27.196 7.69911 25.4607 6.15701 24.4166C5.02451 23.65 3.67038 23.3328 2.34694 23.4922C2.40905 20.5952 3.39624 17.7422 5.14256 15.4281C5.14685 15.4224 5.15107 15.4167 5.15529 15.4109C5.9231 14.3769 5.81381 12.9191 4.89787 12.0121L3.91725 11.0402L5.04037 9.24301C6.35662 7.137 8.20051 5.38756 10.3727 4.18373C12.4657 3.02374 14.8265 2.39069 17.2181 2.34608L19.4759 3.47506C19.8059 3.63999 20.1941 3.63999 20.5241 3.47506L22.782 2.34608C25.1733 2.39062 27.5343 3.02366 29.6274 4.18373C31.7996 5.38763 33.6435 7.13708 34.9596 9.24293L36.0828 11.0402L35.1025 12.0118C34.1863 12.9192 34.0771 14.377 34.8448 15.411C34.849 15.4167 34.8532 15.4224 34.8575 15.4281C36.6038 17.7424 37.5909 20.5955 37.6531 23.4923C36.3292 23.3333 34.9753 23.6502 33.8428 24.4169Z" fill="#C9BAE2"/>
</svg>
